<svg width="25" height="25" viewBox="0 0 25 25" fill="none" xmlns="http://www.w3.org/2000/svg">
<mask id="mask0_130_30" style="mask-type:alpha" maskUnits="userSpaceOnUse" x="0" y="0" width="25" height="25">
<path fill-rule="evenodd" clip-rule="evenodd" d="M10.06 12.8203H10.0922C13.0295 12.8203 15.4193 10.4305 15.4193 7.49325C15.4193 4.55598 13.0295 2.16724 10.0922 2.16724C7.15496 2.16724 4.76521 4.55598 4.76521 7.49023C4.75512 10.4194 7.12874 12.8112 10.06 12.8203ZM6.27771 7.49325C6.27771 5.38987 7.98885 3.67974 10.0922 3.67974C12.1956 3.67974 13.9068 5.38987 13.9068 7.49325C13.9068 9.59664 12.1956 11.3078 10.0922 11.3078H10.063C7.96868 11.3017 6.27065 9.59059 6.27771 7.49325Z" fill="#717375"/>
<path fill-rule="evenodd" clip-rule="evenodd" d="M2.20544 19.8336C2.20544 23.1208 6.70664 23.5009 10.0926 23.5009C12.0438 23.5009 17.9798 23.5009 17.9798 19.8134C17.9798 17.0032 14.368 14.6296 10.0926 14.6296C5.81729 14.6296 2.20544 17.0123 2.20544 19.8336ZM3.71794 19.8336C3.71794 18.0912 6.44448 16.1421 10.0926 16.1421C13.7408 16.1421 16.4673 18.0801 16.4673 19.8134C16.4673 21.2564 14.3226 21.9884 10.0926 21.9884C5.86267 21.9884 3.71794 21.2634 3.71794 19.8336Z" fill="#717375"/>
<path d="M19.3771 13.7512C18.9597 13.7512 18.6209 13.4124 18.6209 12.995V11.7297H17.3172C16.8997 11.7297 16.5609 11.3909 16.5609 10.9734C16.5609 10.556 16.8997 10.2172 17.3172 10.2172H18.6209V8.95158C18.6209 8.53413 18.9597 8.19533 19.3771 8.19533C19.7946 8.19533 20.1334 8.53413 20.1334 8.95158V10.2172H21.4412C21.8587 10.2172 22.1975 10.556 22.1975 10.9734C22.1975 11.3909 21.8587 11.7297 21.4412 11.7297H20.1334V12.995C20.1334 13.4124 19.7946 13.7512 19.3771 13.7512Z" fill="#717375"/>
</mask>
<g mask="url(#mask0_130_30)">
<rect width="24.2" height="24.2" transform="translate(0.102173 0.733398)" fill="white"/>
</g>
</svg>
