<svg width="19" height="19" viewBox="0 0 19 19" fill="none" xmlns="http://www.w3.org/2000/svg">
<mask id="mask0_678_17152" style="mask-type:alpha" maskUnits="userSpaceOnUse" x="0" y="0" width="19" height="19">
<path d="M13.3174 8.24912H13.336C13.6354 8.24912 13.8835 8.01151 13.8939 7.70909C13.9378 6.40931 13.1624 5.45365 11.9647 5.33075C11.6638 5.30542 11.3837 5.52218 11.3517 5.82906C11.3204 6.13594 11.5438 6.41005 11.8507 6.44208C12.4548 6.5039 12.8012 6.96348 12.7773 7.67185C12.7669 7.98022 13.009 8.23869 13.3174 8.24912Z" fill="#717375"/>
<path fill-rule="evenodd" clip-rule="evenodd" d="M1.79275 9.69379C3.12904 13.8531 7.593 16.0974 9.12443 16.0974C10.667 16.0974 15.1459 13.8524 16.4539 9.69305C17.3105 7.0175 16.3608 3.52559 13.3322 2.54982C12.0421 2.13642 10.2745 2.28838 9.10804 3.47494C8.02725 2.4366 6.42133 2.06194 4.90851 2.55057C1.88288 3.5241 0.934674 7.01676 1.79201 9.69305L1.79275 9.69379ZM9.12443 14.9801C8.24177 14.9801 4.08321 13.1701 2.85642 9.35265C2.16295 7.18659 2.881 4.37697 5.25115 3.61348C6.28725 3.27904 7.80081 3.46675 8.67156 4.66895C8.77956 4.81718 8.95237 4.89167 9.13635 4.89912C9.31958 4.89539 9.48941 4.80154 9.59072 4.64884C10.3847 3.44366 11.9102 3.26787 12.9903 3.61348C15.3627 4.37771 16.0822 7.18733 15.3887 9.35488C14.1887 13.1708 10.0138 14.9801 9.12443 14.9801Z" fill="#717375"/>
</mask>
<g mask="url(#mask0_678_17152)">
<rect width="17.8767" height="17.8767" transform="translate(0.183594 0.279785)" fill="white"/>
</g>
</svg>
