<svg width="18" height="19" viewBox="0 0 18 19" fill="none" xmlns="http://www.w3.org/2000/svg">
<mask id="mask0_678_8440" style="mask-type:alpha" maskUnits="userSpaceOnUse" x="0" y="0" width="18" height="19">
<path d="M9.00056 13.5928C8.69359 13.5928 8.44445 13.3437 8.44445 13.0367V11.3899C8.44445 11.0829 8.69359 10.8338 9.00056 10.8338C9.30753 10.8338 9.55666 11.0829 9.55666 11.3899V13.0367C9.55666 13.3437 9.30753 13.5928 9.00056 13.5928Z" fill="#717375"/>
<path fill-rule="evenodd" clip-rule="evenodd" d="M12.9374 7.5112C14.5669 8.25342 15.2362 9.69743 15.2362 12.0863C15.2362 15.8819 13.5464 17.2929 9.00044 17.2929C4.45447 17.2929 2.76465 15.8819 2.76465 12.0863C2.76465 9.69771 3.43385 8.25377 5.06293 7.51146V6.25758C5.09778 4.10434 6.80465 2.40414 8.94825 2.37671C10.0145 2.3819 10.9962 2.76079 11.7488 3.49485C12.5029 4.23039 12.9248 5.21359 12.9374 6.26574V7.5112ZM12.119 8.35628C12.1653 8.38111 12.2156 8.39958 12.2686 8.4105C13.6524 8.94404 14.124 10.0519 14.124 12.0863C14.124 15.2628 12.9747 16.1807 9.00044 16.1807C5.02614 16.1807 3.87686 15.2628 3.87686 12.0863C3.87686 10.0516 4.34865 8.94368 5.73299 8.41024C5.78513 8.39937 5.8346 8.38119 5.88027 8.35682C6.64214 8.09691 7.6608 7.99261 9.00044 7.99261C10.3392 7.99261 11.3573 8.09676 12.119 8.35628ZM6.17514 7.14434V6.26648C6.19961 4.72866 7.42378 3.5082 8.96308 3.48892C9.73125 3.48373 10.4327 3.76475 10.9732 4.29194C11.5137 4.81912 11.8163 5.52427 11.8252 6.27241V7.14421C11.0411 6.96367 10.1051 6.8804 9.00044 6.8804C7.89553 6.8804 6.95934 6.96371 6.17514 7.14434Z" fill="#717375"/>
</mask>
<g mask="url(#mask0_678_8440)">
<rect width="17.7954" height="17.7954" transform="translate(0.102539 0.937256)" fill="white"/>
</g>
</svg>
