<svg width="17" height="17" viewBox="0 0 17 17" fill="none" xmlns="http://www.w3.org/2000/svg">
<mask id="mask0_454_32183" style="mask-type:alpha" maskUnits="userSpaceOnUse" x="0" y="0" width="17" height="17">
<path fill-rule="evenodd" clip-rule="evenodd" d="M9.65212 3.99469C7.15968 4.68094 4.56533 5.60252 3.43459 6.25521C3.1645 6.41113 3.10486 6.51515 3.09421 6.53805C3.09923 6.55563 3.11891 6.59785 3.18752 6.67062C3.31329 6.80401 3.53486 6.96046 3.85411 7.12855C4.16654 7.29304 4.54243 7.45325 4.95019 7.60484C5.76554 7.90796 6.67378 8.16399 7.38395 8.34514C7.73777 8.43539 8.03978 8.50639 8.25296 8.55474C8.3595 8.57891 8.44374 8.5974 8.50102 8.60977L8.56612 8.6237L8.5824 8.62712L8.58713 8.6281C8.78595 8.66925 8.94146 8.82464 8.9826 9.02346L8.98362 9.02834L8.98704 9.04462L9.00097 9.10971C9.01334 9.167 9.03183 9.25123 9.056 9.35778C9.10435 9.57096 9.17535 9.87297 9.2656 10.2268C9.44675 10.937 9.70278 11.8452 10.0059 12.6605C10.1575 13.0683 10.3177 13.4442 10.4822 13.7566C10.6503 14.0759 10.8067 14.2975 10.9401 14.4232C11.0129 14.4918 11.0551 14.5115 11.0727 14.5165C11.0956 14.5059 11.1996 14.4462 11.3555 14.1762C12.0082 13.0454 12.9298 10.4511 13.616 7.95862C13.9568 6.72085 14.2333 5.53099 14.3866 4.58671C14.4635 4.11344 14.5074 3.7141 14.5154 3.40708C14.5186 3.28469 14.5159 3.18333 14.5088 3.1019C14.4274 3.09485 14.3261 3.09215 14.2037 3.09535C13.8966 3.10339 13.4973 3.14727 13.024 3.22413C12.0798 3.37747 10.8899 3.6539 9.65212 3.99469ZM11.0824 14.5178C11.0824 14.5182 11.0802 14.5184 11.0755 14.5173C11.08 14.5169 11.0823 14.5174 11.0824 14.5178ZM8.05661 9.55414C8.04717 9.55201 8.03755 9.54983 8.02775 9.54761C7.80742 9.49763 7.49644 9.42451 7.13232 9.33164C6.40661 9.14652 5.45919 8.88023 4.59543 8.55912C4.16364 8.39859 3.74412 8.22121 3.37981 8.0294C3.02232 7.84118 2.68584 7.6226 2.44676 7.36903C2.2085 7.11632 1.99693 6.74767 2.10177 6.30703C2.19904 5.89819 2.53316 5.60004 2.92561 5.37349C4.17865 4.6502 6.88381 3.70093 9.38186 3.01314C10.6393 2.66691 11.8675 2.38052 12.8608 2.21921C13.3564 2.13874 13.8058 2.08733 14.177 2.07762C14.3627 2.07276 14.5388 2.078 14.6969 2.09833C14.8488 2.11786 15.017 2.15521 15.1661 2.23461C15.2554 2.28218 15.3286 2.3553 15.3761 2.44462C15.4555 2.59371 15.4929 2.76189 15.5124 2.91387C15.5327 3.07197 15.538 3.24808 15.5331 3.43372C15.5234 3.80496 15.472 4.25436 15.3915 4.7499C15.2302 5.74327 14.9438 6.9714 14.5976 8.22888C13.9098 10.7269 12.9605 13.4321 12.2373 14.6851C12.0107 15.0776 11.7125 15.4117 11.3037 15.509C10.8631 15.6138 10.4944 15.4022 10.2417 15.164C9.98814 14.9249 9.76956 14.5884 9.58134 14.2309C9.38953 13.8666 9.21215 13.4471 9.05162 13.0153C8.7305 12.1515 8.46422 11.2041 8.2791 10.4784C8.18623 10.1143 8.11311 9.80332 8.06313 9.58299C8.06091 9.57319 8.05874 9.56357 8.05661 9.55414ZM3.09295 6.52836C3.09332 6.52842 3.09386 6.53077 3.09347 6.5352C3.09238 6.53051 3.09258 6.52829 3.09295 6.52836Z" fill="#717375"/>
<path fill-rule="evenodd" clip-rule="evenodd" d="M15.2873 2.32439C15.4861 2.52318 15.4861 2.84549 15.2873 3.04428L8.84458 9.48699C8.64578 9.68578 8.32347 9.68578 8.12468 9.48699C7.92589 9.2882 7.92589 8.96589 8.12468 8.7671L14.5674 2.32439C14.7662 2.12559 15.0885 2.12559 15.2873 2.32439Z" fill="#717375"/>
</mask>
<g mask="url(#mask0_454_32183)">
<rect width="16.2893" height="16.2893" transform="translate(0.681641 0.684082)" fill="white"/>
</g>
</svg>
