<svg width="260" height="154" viewBox="0 0 260 154" fill="none" xmlns="http://www.w3.org/2000/svg">
<rect x="2" width="256" height="154" rx="18.3836" fill="black" fill-opacity="0.6"/>
<mask id="mask0_491_17694" style="mask-type:alpha" maskUnits="userSpaceOnUse" x="84" y="35" width="18" height="19">
<path d="M93.0001 48.6531C92.6931 48.6531 92.444 48.404 92.444 48.097V46.4502C92.444 46.1432 92.6931 45.8941 93.0001 45.8941C93.307 45.8941 93.5562 46.1432 93.5562 46.4502V48.097C93.5562 48.404 93.307 48.6531 93.0001 48.6531Z" fill="#717375"/>
<path fill-rule="evenodd" clip-rule="evenodd" d="M96.9369 42.5715C98.5664 43.3137 99.2357 44.7577 99.2357 47.1466C99.2357 50.9422 97.5459 52.3532 93 52.3532C88.454 52.3532 86.7642 50.9422 86.7642 47.1466C86.7642 44.758 87.4334 43.3141 89.0624 42.5718V41.3179C89.0973 39.1646 90.8042 37.4644 92.9478 37.437C94.014 37.4422 94.9957 37.8211 95.7483 38.5552C96.5024 39.2907 96.9243 40.2739 96.9369 41.326V42.5715ZM96.1185 43.4166C96.1648 43.4414 96.2151 43.4599 96.2681 43.4708C97.6519 44.0043 98.1235 45.1122 98.1235 47.1466C98.1235 50.3231 96.9743 51.241 93 51.241C89.0257 51.241 87.8764 50.3231 87.8764 47.1466C87.8764 45.1119 88.3482 44.004 89.7325 43.4705C89.7846 43.4597 89.8341 43.4415 89.8798 43.4171C90.6416 43.1572 91.6603 43.0529 93 43.0529C94.3387 43.0529 95.3568 43.1571 96.1185 43.4166ZM90.1746 42.2046V41.3268C90.1991 39.789 91.4233 38.5685 92.9626 38.5492C93.7308 38.544 94.4322 38.8251 94.9727 39.3522C95.5133 39.8794 95.8158 40.5846 95.8247 41.3327V42.2045C95.0406 42.024 94.1046 41.9407 93 41.9407C91.895 41.9407 90.9589 42.024 90.1746 42.2046Z" fill="#717375"/>
</mask>
<g mask="url(#mask0_491_17694)">
<rect width="17.7954" height="17.7954" transform="translate(84.1025 35.9976)" fill="white"/>
</g>
<path d="M107.963 40.495V47.839H111.587V48.895H106.847V40.495H107.963ZM117.428 48.139C116.82 48.747 116.072 49.051 115.184 49.051C114.296 49.051 113.548 48.747 112.94 48.139C112.332 47.531 112.028 46.783 112.028 45.895C112.028 45.007 112.332 44.259 112.94 43.651C113.548 43.043 114.296 42.739 115.184 42.739C116.072 42.739 116.82 43.043 117.428 43.651C118.044 44.267 118.352 45.015 118.352 45.895C118.352 46.775 118.044 47.523 117.428 48.139ZM115.184 48.031C115.784 48.031 116.288 47.827 116.696 47.419C117.104 47.011 117.308 46.503 117.308 45.895C117.308 45.287 117.104 44.779 116.696 44.371C116.288 43.963 115.784 43.759 115.184 43.759C114.592 43.759 114.092 43.963 113.684 44.371C113.276 44.779 113.072 45.287 113.072 45.895C113.072 46.503 113.276 47.011 113.684 47.419C114.092 47.827 114.592 48.031 115.184 48.031ZM122.403 49.051C121.499 49.051 120.747 48.751 120.147 48.151C119.547 47.543 119.247 46.791 119.247 45.895C119.247 44.999 119.547 44.251 120.147 43.651C120.747 43.043 121.499 42.739 122.403 42.739C122.995 42.739 123.527 42.883 123.999 43.171C124.471 43.451 124.823 43.831 125.055 44.311L124.179 44.815C124.027 44.495 123.791 44.239 123.471 44.047C123.159 43.855 122.803 43.759 122.403 43.759C121.803 43.759 121.299 43.963 120.891 44.371C120.491 44.787 120.291 45.295 120.291 45.895C120.291 46.487 120.491 46.991 120.891 47.407C121.299 47.815 121.803 48.019 122.403 48.019C122.803 48.019 123.163 47.927 123.483 47.743C123.803 47.551 124.047 47.295 124.215 46.975L125.103 47.491C124.839 47.971 124.467 48.351 123.987 48.631C123.507 48.911 122.979 49.051 122.403 49.051ZM128.245 45.799L131.209 48.895H129.913L127.177 46.051V48.895H126.133V40.495H127.177V45.547L129.769 42.895H131.113L128.245 45.799ZM134.604 40.495H140.664V41.551H138.18V48.895H137.076V41.551H134.604V40.495ZM145.635 48.139C145.027 48.747 144.279 49.051 143.391 49.051C142.503 49.051 141.755 48.747 141.147 48.139C140.539 47.531 140.235 46.783 140.235 45.895C140.235 45.007 140.539 44.259 141.147 43.651C141.755 43.043 142.503 42.739 143.391 42.739C144.279 42.739 145.027 43.043 145.635 43.651C146.251 44.267 146.559 45.015 146.559 45.895C146.559 46.775 146.251 47.523 145.635 48.139ZM143.391 48.031C143.991 48.031 144.495 47.827 144.903 47.419C145.311 47.011 145.515 46.503 145.515 45.895C145.515 45.287 145.311 44.779 144.903 44.371C144.495 43.963 143.991 43.759 143.391 43.759C142.799 43.759 142.299 43.963 141.891 44.371C141.483 44.779 141.279 45.287 141.279 45.895C141.279 46.503 141.483 47.011 141.891 47.419C142.299 47.827 142.799 48.031 143.391 48.031ZM154.354 48.895H153.094L150.094 40.495H151.294L153.73 47.503L156.154 40.495H157.366L154.354 48.895ZM158.536 41.803C158.336 41.803 158.168 41.735 158.032 41.599C157.896 41.463 157.828 41.299 157.828 41.107C157.828 40.915 157.896 40.751 158.032 40.615C158.168 40.471 158.336 40.399 158.536 40.399C158.728 40.399 158.892 40.471 159.028 40.615C159.164 40.751 159.232 40.915 159.232 41.107C159.232 41.299 159.164 41.463 159.028 41.599C158.892 41.735 158.728 41.803 158.536 41.803ZM159.052 48.895H158.008V42.895H159.052V48.895ZM166.405 46.375H161.377C161.481 46.903 161.725 47.319 162.109 47.623C162.493 47.919 162.973 48.067 163.549 48.067C164.341 48.067 164.917 47.775 165.277 47.191L166.165 47.695C165.573 48.599 164.693 49.051 163.525 49.051C162.581 49.051 161.805 48.755 161.197 48.163C160.605 47.555 160.309 46.799 160.309 45.895C160.309 44.983 160.601 44.231 161.185 43.639C161.769 43.039 162.525 42.739 163.453 42.739C164.333 42.739 165.049 43.051 165.601 43.675C166.161 44.283 166.441 45.027 166.441 45.907C166.441 46.059 166.429 46.215 166.405 46.375ZM163.453 43.723C162.901 43.723 162.437 43.879 162.061 44.191C161.693 44.503 161.465 44.927 161.377 45.463H165.385C165.297 44.911 165.077 44.483 164.725 44.179C164.373 43.875 163.949 43.723 163.453 43.723ZM173.155 47.467L174.475 42.895H175.567L173.707 48.895H172.639L171.235 44.455L169.831 48.895H168.763L166.903 42.895H167.995L169.315 47.455L170.731 42.895H171.739L173.155 47.467Z" fill="white"/>
<path d="M40.3932 60.1458H45.2207V60.987H43.2419V66.8374H42.3624V60.987H40.3932V60.1458ZM49.1804 66.2352C48.6961 66.7195 48.1002 66.9617 47.3928 66.9617C46.6854 66.9617 46.0895 66.7195 45.6052 66.2352C45.1208 65.7508 44.8787 65.1549 44.8787 64.4475C44.8787 63.7401 45.1208 63.1442 45.6052 62.6599C46.0895 62.1756 46.6854 61.9334 47.3928 61.9334C48.1002 61.9334 48.6961 62.1756 49.1804 62.6599C49.6712 63.1506 49.9165 63.7465 49.9165 64.4475C49.9165 65.1486 49.6712 65.7444 49.1804 66.2352ZM47.3928 66.1491C47.8708 66.1491 48.2723 65.9866 48.5973 65.6616C48.9223 65.3366 49.0849 64.9319 49.0849 64.4475C49.0849 63.9632 48.9223 63.5585 48.5973 63.2335C48.2723 62.9084 47.8708 62.7459 47.3928 62.7459C46.9212 62.7459 46.5229 62.9084 46.1979 63.2335C45.8729 63.5585 45.7104 63.9632 45.7104 64.4475C45.7104 64.9319 45.8729 65.3366 46.1979 65.6616C46.5229 65.9866 46.9212 66.1491 47.3928 66.1491ZM55.8488 66.8374H54.8164L52.8949 60.1458H53.8317L55.3613 65.652L56.9864 60.1458H57.885L59.5101 65.652L61.0396 60.1458H61.9764L60.055 66.8374H59.0225L57.4357 61.4936L55.8488 66.8374ZM66.2345 62.8798V62.0577H67.0662V66.8374H66.2345V66.0153C65.8266 66.6462 65.2244 66.9617 64.4278 66.9617C63.7522 66.9617 63.1819 66.7195 62.7166 66.2352C62.245 65.7444 62.0092 65.1486 62.0092 64.4475C62.0092 63.7529 62.245 63.1602 62.7166 62.6695C63.1882 62.1787 63.7586 61.9334 64.4278 61.9334C65.2244 61.9334 65.8266 62.2488 66.2345 62.8798ZM64.5329 66.1587C65.0173 66.1587 65.422 65.9962 65.747 65.6711C66.072 65.3334 66.2345 64.9255 66.2345 64.4475C66.2345 63.9632 66.072 63.5585 65.747 63.2335C65.422 62.9021 65.0173 62.7364 64.5329 62.7364C64.055 62.7364 63.6535 62.9021 63.3284 63.2335C63.0034 63.5585 62.8409 63.9632 62.8409 64.4475C62.8409 64.9255 63.0034 65.3334 63.3284 65.6711C63.6535 65.9962 64.055 66.1587 64.5329 66.1587ZM70.9264 62.0577V62.8607H69.655V65.4513C69.655 65.6871 69.6996 65.856 69.7889 65.9579C69.8845 66.0535 70.0278 66.1045 70.219 66.1109C70.4102 66.1109 70.646 66.1045 70.9264 66.0918V66.8374C70.1935 66.933 69.6582 66.8725 69.3204 66.6558C68.989 66.4391 68.8233 66.0376 68.8233 65.4513V62.8607H67.877V62.0577H68.8233V60.9679L69.655 60.7193V62.0577H70.9264ZM73.9148 66.9617C73.1947 66.9617 72.5956 66.7227 72.1176 66.2447C71.6397 65.7604 71.4007 65.1613 71.4007 64.4475C71.4007 63.7338 71.6397 63.1379 72.1176 62.6599C72.5956 62.1756 73.1947 61.9334 73.9148 61.9334C74.3864 61.9334 74.8102 62.0481 75.1862 62.2775C75.5622 62.5006 75.8427 62.8033 76.0275 63.1857L75.3296 63.5872C75.2085 63.3323 75.0205 63.1283 74.7656 62.9754C74.5171 62.8224 74.2335 62.7459 73.9148 62.7459C73.4369 62.7459 73.0354 62.9084 72.7103 63.2335C72.3917 63.5649 72.2324 63.9696 72.2324 64.4475C72.2324 64.9191 72.3917 65.3206 72.7103 65.652C73.0354 65.977 73.4369 66.1396 73.9148 66.1396C74.2335 66.1396 74.5203 66.0663 74.7752 65.9197C75.0301 65.7667 75.2245 65.5628 75.3583 65.3079L76.0657 65.7189C75.8554 66.1013 75.5591 66.404 75.1767 66.6271C74.7943 66.8501 74.3737 66.9617 73.9148 66.9617ZM79.2672 61.9334C79.828 61.9334 80.2773 62.1118 80.6151 62.4687C80.9528 62.8192 81.1217 63.2972 81.1217 63.9026V66.8374H80.29V63.9504C80.29 63.5681 80.1849 63.2685 79.9746 63.0518C79.7643 62.8352 79.4743 62.7268 79.1047 62.7268C78.6777 62.7268 78.3399 62.8607 78.0914 63.1283C77.8428 63.3896 77.7185 63.7815 77.7185 64.3041V66.8374H76.8869V60.1458H77.7185V62.7459C78.0499 62.2042 78.5661 61.9334 79.2672 61.9334ZM84.2138 60.1458H89.0413V60.987H87.0625V66.8374H86.183V60.987H84.2138V60.1458ZM92.2154 61.9334C92.7763 61.9334 93.2256 62.1118 93.5633 62.4687C93.9011 62.8192 94.07 63.2972 94.07 63.9026V66.8374H93.2383V63.9504C93.2383 63.5681 93.1332 63.2685 92.9228 63.0518C92.7125 62.8352 92.4226 62.7268 92.0529 62.7268C91.6259 62.7268 91.2882 62.8607 91.0396 63.1283C90.7911 63.3896 90.6668 63.7815 90.6668 64.3041V66.8374H89.8351V60.1458H90.6668V62.7459C90.9982 62.2042 91.5144 61.9334 92.2154 61.9334ZM99.8196 64.8299H95.8141C95.897 65.2505 96.0914 65.5819 96.3973 65.8241C96.7032 66.0599 97.0856 66.1778 97.5444 66.1778C98.1753 66.1778 98.6342 65.9452 98.921 65.48L99.6284 65.8815C99.1568 66.6016 98.4557 66.9617 97.5253 66.9617C96.7733 66.9617 96.1551 66.7259 95.6707 66.2543C95.1991 65.7699 94.9633 65.1677 94.9633 64.4475C94.9633 63.721 95.196 63.1219 95.6612 62.6503C96.1264 62.1724 96.7287 61.9334 97.4679 61.9334C98.169 61.9334 98.7393 62.1819 99.1791 62.679C99.6252 63.1634 99.8482 63.7561 99.8482 64.4571C99.8482 64.5782 99.8387 64.7024 99.8196 64.8299ZM97.4679 62.7173C97.0282 62.7173 96.6586 62.8415 96.359 63.0901C96.0659 63.3386 95.8842 63.6764 95.8141 64.1034H99.007C98.9369 63.6636 98.7617 63.3227 98.4812 63.0805C98.2008 62.8383 97.8631 62.7173 97.4679 62.7173ZM107.133 60.1458V60.987H104.169V63.157H107.008V63.9982H104.169V66.8374H103.28V60.1458H107.133ZM111.421 64.5909V62.0577H112.253V66.8374H111.421V66.1491C111.09 66.6908 110.574 66.9617 109.873 66.9617C109.312 66.9617 108.863 66.7864 108.525 66.4359C108.187 66.079 108.018 65.5979 108.018 64.9924V62.0577H108.85V64.9446C108.85 65.327 108.955 65.6265 109.165 65.8432C109.376 66.0599 109.666 66.1682 110.035 66.1682C110.462 66.1682 110.8 66.0376 111.048 65.7763C111.297 65.5086 111.421 65.1135 111.421 64.5909ZM114.351 66.8374H113.519V59.859H114.351V66.8374ZM116.451 66.8374H115.62V59.859H116.451V66.8374ZM122.949 66.8374H121.945L119.556 60.1458H120.511L122.452 65.7285L124.383 60.1458H125.349L122.949 66.8374ZM126.281 61.1877C126.122 61.1877 125.988 61.1336 125.88 61.0252C125.771 60.9169 125.717 60.7862 125.717 60.6333C125.717 60.4803 125.771 60.3497 125.88 60.2413C125.988 60.1266 126.122 60.0693 126.281 60.0693C126.434 60.0693 126.565 60.1266 126.673 60.2413C126.782 60.3497 126.836 60.4803 126.836 60.6333C126.836 60.7862 126.782 60.9169 126.673 61.0252C126.565 61.1336 126.434 61.1877 126.281 61.1877ZM126.692 66.8374H125.861V62.0577H126.692V66.8374ZM131.919 62.8798V60.1458H132.75V66.8374H131.919V66.0153C131.511 66.6462 130.909 66.9617 130.112 66.9617C129.436 66.9617 128.866 66.7195 128.401 66.2352C127.929 65.7444 127.693 65.1486 127.693 64.4475C127.693 63.7529 127.929 63.1602 128.401 62.6695C128.872 62.1787 129.443 61.9334 130.112 61.9334C130.909 61.9334 131.511 62.2488 131.919 62.8798ZM130.217 66.1587C130.701 66.1587 131.106 65.9962 131.431 65.6711C131.756 65.3334 131.919 64.9255 131.919 64.4475C131.919 63.9632 131.756 63.5585 131.431 63.2335C131.106 62.9021 130.701 62.7364 130.217 62.7364C129.739 62.7364 129.338 62.9021 129.013 63.2335C128.688 63.5585 128.525 63.9632 128.525 64.4475C128.525 64.9255 128.688 65.3334 129.013 65.6711C129.338 65.9962 129.739 66.1587 130.217 66.1587ZM138.599 64.8299H134.594C134.676 65.2505 134.871 65.5819 135.177 65.8241C135.483 66.0599 135.865 66.1778 136.324 66.1778C136.955 66.1778 137.414 65.9452 137.7 65.48L138.408 65.8815C137.936 66.6016 137.235 66.9617 136.305 66.9617C135.553 66.9617 134.935 66.7259 134.45 66.2543C133.979 65.7699 133.743 65.1677 133.743 64.4475C133.743 63.721 133.975 63.1219 134.441 62.6503C134.906 62.1724 135.508 61.9334 136.247 61.9334C136.948 61.9334 137.519 62.1819 137.959 62.679C138.405 63.1634 138.628 63.7561 138.628 64.4571C138.628 64.5782 138.618 64.7024 138.599 64.8299ZM136.247 62.7173C135.808 62.7173 135.438 62.8415 135.138 63.0901C134.845 63.3386 134.664 63.6764 134.594 64.1034H137.786C137.716 63.6636 137.541 63.3227 137.261 63.0805C136.98 62.8383 136.643 62.7173 136.247 62.7173ZM143.608 66.2352C143.124 66.7195 142.528 66.9617 141.821 66.9617C141.113 66.9617 140.518 66.7195 140.033 66.2352C139.549 65.7508 139.307 65.1549 139.307 64.4475C139.307 63.7401 139.549 63.1442 140.033 62.6599C140.518 62.1756 141.113 61.9334 141.821 61.9334C142.528 61.9334 143.124 62.1756 143.608 62.6599C144.099 63.1506 144.345 63.7465 144.345 64.4475C144.345 65.1486 144.099 65.7444 143.608 66.2352ZM141.821 66.1491C142.299 66.1491 142.7 65.9866 143.025 65.6616C143.35 65.3366 143.513 64.9319 143.513 64.4475C143.513 63.9632 143.35 63.5585 143.025 63.2335C142.7 62.9084 142.299 62.7459 141.821 62.7459C141.349 62.7459 140.951 62.9084 140.626 63.2335C140.301 63.5585 140.138 63.9632 140.138 64.4475C140.138 64.9319 140.301 65.3366 140.626 65.6616C140.951 65.9866 141.349 66.1491 141.821 66.1491ZM145.229 65.8528H146.185L145.564 68.1757H144.847L145.229 65.8528ZM153.822 60.1458H154.817L152.446 64.1321V66.8374H151.557V64.1225L149.196 60.1458H150.19L152.006 63.2813L153.822 60.1458ZM158.601 66.2352C158.117 66.7195 157.521 66.9617 156.814 66.9617C156.106 66.9617 155.51 66.7195 155.026 66.2352C154.542 65.7508 154.299 65.1549 154.299 64.4475C154.299 63.7401 154.542 63.1442 155.026 62.6599C155.51 62.1756 156.106 61.9334 156.814 61.9334C157.521 61.9334 158.117 62.1756 158.601 62.6599C159.092 63.1506 159.337 63.7465 159.337 64.4475C159.337 65.1486 159.092 65.7444 158.601 66.2352ZM156.814 66.1491C157.292 66.1491 157.693 65.9866 158.018 65.6616C158.343 65.3366 158.506 64.9319 158.506 64.4475C158.506 63.9632 158.343 63.5585 158.018 63.2335C157.693 62.9084 157.292 62.7459 156.814 62.7459C156.342 62.7459 155.944 62.9084 155.619 63.2335C155.294 63.5585 155.131 63.9632 155.131 64.4475C155.131 64.9319 155.294 65.3366 155.619 65.6616C155.944 65.9866 156.342 66.1491 156.814 66.1491ZM163.616 64.5909V62.0577H164.447V66.8374H163.616V66.1491C163.284 66.6908 162.768 66.9617 162.067 66.9617C161.506 66.9617 161.057 66.7864 160.719 66.4359C160.381 66.079 160.213 65.5979 160.213 64.9924V62.0577H161.044V64.9446C161.044 65.327 161.149 65.6265 161.36 65.8432C161.57 66.0599 161.86 66.1682 162.23 66.1682C162.657 66.1682 162.994 66.0376 163.243 65.7763C163.492 65.5086 163.616 65.1135 163.616 64.5909ZM173.447 60.1458H174.451V66.8374H173.572V61.6084L171.382 65.2505H171.268L169.079 61.6179V66.8374H168.19V60.1458H169.193L171.325 63.6828L173.447 60.1458ZM179.094 64.5909V62.0577H179.926V66.8374H179.094V66.1491C178.763 66.6908 178.246 66.9617 177.545 66.9617C176.984 66.9617 176.535 66.7864 176.197 66.4359C175.86 66.079 175.691 65.5979 175.691 64.9924V62.0577H176.522V64.9446C176.522 65.327 176.628 65.6265 176.838 65.8432C177.048 66.0599 177.338 66.1682 177.708 66.1682C178.135 66.1682 178.473 66.0376 178.721 65.7763C178.97 65.5086 179.094 65.1135 179.094 64.5909ZM181.899 63.3482C181.899 63.6541 182.215 63.8931 182.846 64.0651C183.082 64.1161 183.279 64.1703 183.439 64.2277C183.604 64.2786 183.783 64.3583 183.974 64.4666C184.171 64.575 184.321 64.7184 184.423 64.8968C184.525 65.0753 184.576 65.2856 184.576 65.5278C184.576 65.9611 184.407 66.3084 184.069 66.5697C183.732 66.831 183.305 66.9617 182.788 66.9617C182.33 66.9617 181.931 66.8629 181.594 66.6653C181.262 66.4614 181.026 66.1874 180.886 65.8432L181.603 65.4322C181.68 65.6616 181.823 65.8432 182.033 65.977C182.244 66.1109 182.495 66.1778 182.788 66.1778C183.075 66.1778 183.305 66.1236 183.477 66.0153C183.649 65.9069 183.735 65.7444 183.735 65.5278C183.735 65.2027 183.419 64.9669 182.788 64.8203C182.578 64.763 182.419 64.7184 182.31 64.6865C182.202 64.6547 182.052 64.5973 181.861 64.5144C181.676 64.4316 181.536 64.3456 181.441 64.2563C181.345 64.1607 181.256 64.0365 181.173 63.8835C181.096 63.7242 181.058 63.5489 181.058 63.3577C181.058 62.9435 181.218 62.6025 181.536 62.3349C181.861 62.0672 182.266 61.9334 182.75 61.9334C183.139 61.9334 183.483 62.0226 183.783 62.201C184.089 62.3731 184.318 62.6153 184.471 62.9276L183.773 63.3195C183.601 62.9116 183.26 62.7077 182.75 62.7077C182.508 62.7077 182.304 62.7651 182.138 62.8798C181.979 62.9945 181.899 63.1506 181.899 63.3482ZM187.974 62.0577V62.8607H186.703V65.4513C186.703 65.6871 186.747 65.856 186.837 65.9579C186.932 66.0535 187.076 66.1045 187.267 66.1109C187.458 66.1109 187.694 66.1045 187.974 66.0918V66.8374C187.241 66.933 186.706 66.8725 186.368 66.6558C186.037 66.4391 185.871 66.0376 185.871 65.4513V62.8607H184.925V62.0577H185.871V60.9679L186.703 60.7193V62.0577H187.974ZM191.463 60.1458H193.891C194.503 60.1458 195.016 60.3529 195.43 60.7671C195.844 61.1814 196.051 61.6912 196.051 62.2966C196.051 62.9021 195.844 63.4119 195.43 63.8262C195.016 64.2404 194.503 64.4475 193.891 64.4475H192.352V66.8374H191.463V60.1458ZM192.352 63.6159H193.891C194.267 63.6159 194.573 63.4916 194.809 63.243C195.051 62.9817 195.172 62.6663 195.172 62.2966C195.172 61.9143 195.051 61.5988 194.809 61.3503C194.566 61.1017 194.261 60.9774 193.891 60.9774H192.352V63.6159ZM200.609 62.8798V62.0577H201.441V66.8374H200.609V66.0153C200.201 66.6462 199.599 66.9617 198.802 66.9617C198.127 66.9617 197.556 66.7195 197.091 66.2352C196.619 65.7444 196.384 65.1486 196.384 64.4475C196.384 63.7529 196.619 63.1602 197.091 62.6695C197.563 62.1787 198.133 61.9334 198.802 61.9334C199.599 61.9334 200.201 62.2488 200.609 62.8798ZM198.907 66.1587C199.392 66.1587 199.796 65.9962 200.121 65.6711C200.446 65.3334 200.609 64.9255 200.609 64.4475C200.609 63.9632 200.446 63.5585 200.121 63.2335C199.796 62.9021 199.392 62.7364 198.907 62.7364C198.429 62.7364 198.028 62.9021 197.703 63.2335C197.378 63.5585 197.215 63.9632 197.215 64.4475C197.215 64.9255 197.378 65.3334 197.703 65.6711C198.028 65.9962 198.429 66.1587 198.907 66.1587ZM204.66 65.805L206.037 62.0577H206.926L204.976 67.1337C204.766 67.6755 204.476 68.0865 204.106 68.3669C203.743 68.6537 203.325 68.7812 202.854 68.7493V67.975C203.44 68.0196 203.87 67.6946 204.144 66.9999L204.23 66.8183L202.146 62.0577H203.035L204.66 65.805ZM214.303 65.0498C214.303 65.5787 214.13 66.0089 213.786 66.3403C213.442 66.6717 212.996 66.8725 212.448 66.9426V67.7934H211.846V66.9521C211.33 66.9139 210.887 66.7705 210.517 66.5219C210.147 66.2734 209.88 65.9388 209.714 65.5182L210.479 65.0785C210.702 65.6711 211.157 66.0057 211.846 66.0822V63.7688C211.323 63.584 210.909 63.3737 210.603 63.1379C210.227 62.8447 210.039 62.4177 210.039 61.8569C210.039 61.3407 210.211 60.9201 210.555 60.595C210.906 60.2637 211.336 60.0757 211.846 60.031V59.1898H212.448V60.0406C213.257 60.1489 213.831 60.5759 214.169 61.3216L213.423 61.7422C213.238 61.277 212.913 60.9997 212.448 60.9105V63.1092C212.735 63.2112 212.967 63.3068 213.146 63.396C213.337 63.4916 213.525 63.6095 213.71 63.7497C214.105 64.0365 214.303 64.4698 214.303 65.0498ZM210.919 61.8569C210.919 62.0927 210.989 62.2903 211.129 62.4496C211.275 62.6025 211.514 62.7459 211.846 62.8798V60.901C211.559 60.9392 211.333 61.0443 211.167 61.2164C211.001 61.3821 210.919 61.5956 210.919 61.8569ZM212.448 63.9887V66.0631C212.748 66.0185 212.983 65.9069 213.155 65.7285C213.327 65.5501 213.414 65.327 213.414 65.0593C213.414 64.8044 213.337 64.6005 213.184 64.4475C213.038 64.2882 212.792 64.1353 212.448 63.9887ZM217.207 62.4592C217.876 62.4592 218.427 62.6695 218.861 63.0901C219.294 63.5043 219.511 64.0428 219.511 64.7056C219.511 65.3684 219.294 65.9101 218.861 66.3307C218.427 66.7514 217.876 66.9617 217.207 66.9617C216.525 66.9617 215.97 66.7514 215.543 66.3307C215.116 65.9101 214.903 65.3684 214.903 64.7056C214.903 64.183 215.037 63.7369 215.304 63.3673L217.455 60.1458H218.469L216.891 62.4783C217.082 62.4655 217.188 62.4592 217.207 62.4592ZM217.207 63.3099C216.78 63.3099 216.436 63.4374 216.174 63.6923C215.913 63.9472 215.782 64.285 215.782 64.7056C215.782 65.1263 215.913 65.4672 216.174 65.7285C216.442 65.9834 216.786 66.1109 217.207 66.1109C217.627 66.1109 217.968 65.9834 218.23 65.7285C218.497 65.4672 218.631 65.1263 218.631 64.7056C218.631 64.285 218.497 63.9472 218.23 63.6923C217.968 63.4374 217.627 63.3099 217.207 63.3099Z" fill="white"/>
<g filter="url(#filter2_d_491_17694)">
<rect x="15.2363" y="81.2354" width="229.528" height="36.7673" rx="18.3836" fill="white"/>
<path d="M83.6692 95.9127H86.3561C87.0424 95.9127 87.6258 96.1461 88.1062 96.6128C88.5798 97.0795 88.8166 97.6526 88.8166 98.332C88.8166 99.0115 88.5798 99.5846 88.1062 100.051C87.6258 100.518 87.0424 100.751 86.3561 100.751H85.0899V103.119H83.6692V95.9127ZM85.0899 99.4233H86.3561C86.6581 99.4233 86.9086 99.3203 87.1076 99.1144C87.3067 98.9017 87.4062 98.6409 87.4062 98.332C87.4062 98.0163 87.3067 97.7555 87.1076 97.5496C86.9086 97.3437 86.6581 97.2408 86.3561 97.2408H85.0899V99.4233ZM93.25 98.5791V97.9717H94.578V103.119H93.25V102.512C92.8519 103.013 92.2925 103.263 91.5719 103.263C90.8856 103.263 90.2953 103.002 89.8012 102.481C89.3139 101.952 89.0703 101.307 89.0703 100.545C89.0703 99.7905 89.3139 99.1488 89.8012 98.6203C90.2953 98.0918 90.8856 97.8276 91.5719 97.8276C92.2925 97.8276 92.8519 98.0781 93.25 98.5791ZM90.7998 101.596C91.0675 101.863 91.4072 101.997 91.819 101.997C92.2308 101.997 92.5705 101.863 92.8382 101.596C93.1127 101.321 93.25 100.971 93.25 100.545C93.25 100.12 93.1127 99.7733 92.8382 99.5057C92.5705 99.2311 92.2308 99.0939 91.819 99.0939C91.4072 99.0939 91.0675 99.2311 90.7998 99.5057C90.5321 99.7733 90.3983 100.12 90.3983 100.545C90.3983 100.971 90.5321 101.321 90.7998 101.596ZM97.9956 101.431L99.1384 97.9717H100.559L98.6854 103.119C98.4177 103.86 98.0608 104.396 97.6147 104.725C97.1755 105.061 96.6264 105.212 95.9676 105.178V103.943C96.3176 103.95 96.599 103.874 96.8117 103.716C97.0245 103.558 97.1926 103.304 97.3162 102.954L95.2057 97.9717H96.6573L97.9956 101.431ZM108.552 101.101C108.552 101.692 108.363 102.179 107.986 102.563C107.608 102.941 107.104 103.167 106.472 103.243V104.149H105.783V103.253C105.206 103.212 104.712 103.051 104.3 102.769C103.888 102.488 103.593 102.107 103.415 101.626L104.64 100.916C104.859 101.472 105.24 101.784 105.783 101.853V100.072H105.772L105.752 100.062C105.333 99.9106 104.959 99.7321 104.63 99.5262C104.074 99.1762 103.775 98.6203 103.734 97.8585C103.734 97.2476 103.929 96.7638 104.321 96.4069C104.732 96.0363 105.22 95.827 105.783 95.7789V94.8833H106.472V95.7995C107.406 95.9162 108.065 96.4 108.449 97.2511L107.255 97.9511C107.09 97.5393 106.829 97.2888 106.472 97.1996V98.9188C107.138 99.1865 107.567 99.389 107.759 99.5262C108.288 99.9106 108.552 100.436 108.552 101.101ZM105.144 97.8688C105.144 98.0198 105.192 98.1536 105.288 98.2703C105.385 98.3801 105.549 98.4933 105.783 98.61V97.1687C105.357 97.2511 105.144 97.4844 105.144 97.8688ZM106.472 100.35V101.832C106.912 101.743 107.131 101.503 107.131 101.112C107.131 100.803 106.912 100.549 106.472 100.35ZM113.337 95.9127L111.742 98.2497C112.49 98.2703 113.097 98.5139 113.564 98.9806C114.03 99.4473 114.264 100.038 114.264 100.751C114.264 101.486 114.02 102.09 113.533 102.563C113.046 103.03 112.418 103.263 111.649 103.263C110.88 103.263 110.252 103.03 109.765 102.563C109.284 102.103 109.044 101.499 109.044 100.751C109.044 100.209 109.185 99.7253 109.466 99.2998L111.711 95.9127H113.337ZM112.853 100.751C112.853 100.408 112.74 100.13 112.514 99.9174C112.287 99.6978 111.999 99.588 111.649 99.588C111.299 99.588 111.011 99.6944 110.784 99.9071C110.564 100.12 110.455 100.401 110.455 100.751C110.455 101.101 110.564 101.386 110.784 101.606C111.011 101.819 111.299 101.925 111.649 101.925C111.999 101.925 112.287 101.819 112.514 101.606C112.74 101.386 112.853 101.101 112.853 100.751ZM122.044 95.9127V97.2717H119.161V98.9806H121.962V100.34H119.161V103.119H117.741V95.9127H122.044ZM127.403 102.481C126.881 103.002 126.236 103.263 125.468 103.263C124.699 103.263 124.054 103.002 123.532 102.481C123.01 101.959 122.75 101.314 122.75 100.545C122.75 99.7836 123.01 99.1419 123.532 98.6203C124.061 98.0918 124.706 97.8276 125.468 97.8276C126.229 97.8276 126.874 98.0918 127.403 98.6203C127.931 99.1488 128.196 99.7905 128.196 100.545C128.196 101.307 127.931 101.952 127.403 102.481ZM124.469 101.565C124.737 101.832 125.069 101.966 125.468 101.966C125.866 101.966 126.198 101.832 126.466 101.565C126.734 101.297 126.868 100.957 126.868 100.545C126.868 100.134 126.734 99.7939 126.466 99.5262C126.198 99.2586 125.866 99.1247 125.468 99.1247C125.069 99.1247 124.737 99.2586 124.469 99.5262C124.208 99.8008 124.078 100.14 124.078 100.545C124.078 100.95 124.208 101.29 124.469 101.565ZM130.458 97.9717V98.8571C130.575 98.5345 130.774 98.2909 131.055 98.1261C131.336 97.9546 131.659 97.8688 132.023 97.8688V99.3512C131.618 99.2963 131.254 99.3787 130.932 99.5983C130.616 99.8111 130.458 100.165 130.458 100.659V103.119H129.13V97.9717H130.458ZM134.9 95.9127H140.201V97.2717H138.256V103.119H136.835V97.2717H134.9V95.9127ZM143.795 97.8276C144.364 97.8276 144.828 98.0163 145.185 98.3938C145.555 98.7781 145.74 99.2998 145.74 99.9586V103.119H144.412V100.123C144.412 99.787 144.32 99.5262 144.134 99.3409C143.956 99.1556 143.709 99.063 143.393 99.063C143.043 99.063 142.765 99.1728 142.559 99.3924C142.36 99.6052 142.261 99.9209 142.261 100.34V103.119H140.933V95.9127H142.261V98.5482C142.577 98.0678 143.088 97.8276 143.795 97.8276ZM147.533 97.354C147.314 97.354 147.122 97.2751 146.957 97.1172C146.799 96.9525 146.72 96.7604 146.72 96.5407C146.72 96.3211 146.799 96.1289 146.957 95.9642C147.122 95.7995 147.314 95.7171 147.533 95.7171C147.76 95.7171 147.952 95.7995 148.11 95.9642C148.275 96.1289 148.357 96.3211 148.357 96.5407C148.357 96.7604 148.275 96.9525 148.11 97.1172C147.952 97.2751 147.76 97.354 147.533 97.354ZM148.202 103.119H146.874V97.9717H148.202V103.119ZM150.603 99.4336C150.603 99.6532 150.915 99.8419 151.54 99.9998C151.759 100.048 151.958 100.106 152.137 100.175C152.315 100.237 152.494 100.329 152.672 100.453C152.857 100.569 153.002 100.727 153.105 100.926C153.207 101.125 153.259 101.355 153.259 101.616C153.259 102.145 153.06 102.553 152.662 102.841C152.264 103.123 151.773 103.263 151.19 103.263C150.133 103.263 149.412 102.855 149.028 102.038L150.181 101.39C150.339 101.836 150.675 102.059 151.19 102.059C151.663 102.059 151.9 101.911 151.9 101.616C151.9 101.396 151.588 101.208 150.963 101.05C150.73 100.988 150.531 100.926 150.366 100.865C150.201 100.803 150.023 100.714 149.831 100.597C149.639 100.473 149.491 100.319 149.388 100.134C149.292 99.9415 149.244 99.7184 149.244 99.4645C149.244 98.9566 149.429 98.5585 149.8 98.2703C150.177 97.9752 150.644 97.8276 151.2 97.8276C151.619 97.8276 152 97.9237 152.343 98.1158C152.686 98.3012 152.957 98.5688 153.156 98.9188L152.024 99.5365C151.859 99.1865 151.584 99.0115 151.2 99.0115C151.028 99.0115 150.884 99.0527 150.768 99.135C150.658 99.2105 150.603 99.31 150.603 99.4336ZM156.799 95.9127H159.486C160.172 95.9127 160.755 96.1461 161.236 96.6128C161.709 97.0795 161.946 97.6526 161.946 98.332C161.946 99.0115 161.709 99.5846 161.236 100.051C160.755 100.518 160.172 100.751 159.486 100.751H158.219V103.119H156.799V95.9127ZM158.219 99.4233H159.486C159.788 99.4233 160.038 99.3203 160.237 99.1144C160.436 98.9017 160.536 98.6409 160.536 98.332C160.536 98.0163 160.436 97.7555 160.237 97.5496C160.038 97.3437 159.788 97.2408 159.486 97.2408H158.219V99.4233ZM166.853 102.481C166.332 103.002 165.686 103.263 164.918 103.263C164.149 103.263 163.504 103.002 162.982 102.481C162.461 101.959 162.2 101.314 162.2 100.545C162.2 99.7836 162.461 99.1419 162.982 98.6203C163.511 98.0918 164.156 97.8276 164.918 97.8276C165.679 97.8276 166.325 98.0918 166.853 98.6203C167.382 99.1488 167.646 99.7905 167.646 100.545C167.646 101.307 167.382 101.952 166.853 102.481ZM163.919 101.565C164.187 101.832 164.52 101.966 164.918 101.966C165.316 101.966 165.649 101.832 165.916 101.565C166.184 101.297 166.318 100.957 166.318 100.545C166.318 100.134 166.184 99.7939 165.916 99.5262C165.649 99.2586 165.316 99.1247 164.918 99.1247C164.52 99.1247 164.187 99.2586 163.919 99.5262C163.658 99.8008 163.528 100.14 163.528 100.545C163.528 100.95 163.658 101.29 163.919 101.565ZM169.695 99.4336C169.695 99.6532 170.007 99.8419 170.631 99.9998C170.851 100.048 171.05 100.106 171.228 100.175C171.407 100.237 171.585 100.329 171.764 100.453C171.949 100.569 172.093 100.727 172.196 100.926C172.299 101.125 172.351 101.355 172.351 101.616C172.351 102.145 172.152 102.553 171.754 102.841C171.355 103.123 170.865 103.263 170.281 103.263C169.224 103.263 168.504 102.855 168.119 102.038L169.272 101.39C169.43 101.836 169.767 102.059 170.281 102.059C170.755 102.059 170.992 101.911 170.992 101.616C170.992 101.396 170.679 101.208 170.055 101.05C169.822 100.988 169.623 100.926 169.458 100.865C169.293 100.803 169.115 100.714 168.922 100.597C168.73 100.473 168.583 100.319 168.48 100.134C168.384 99.9415 168.336 99.7184 168.336 99.4645C168.336 98.9566 168.521 98.5585 168.892 98.2703C169.269 97.9752 169.736 97.8276 170.292 97.8276C170.71 97.8276 171.091 97.9237 171.434 98.1158C171.778 98.3012 172.049 98.5688 172.248 98.9188L171.115 99.5365C170.951 99.1865 170.676 99.0115 170.292 99.0115C170.12 99.0115 169.976 99.0527 169.859 99.135C169.749 99.2105 169.695 99.31 169.695 99.4336ZM175.998 97.9717V99.2483H174.835V101.39C174.835 101.568 174.88 101.698 174.969 101.781C175.058 101.863 175.188 101.911 175.36 101.925C175.532 101.932 175.744 101.928 175.998 101.915V103.119C175.099 103.222 174.457 103.14 174.073 102.872C173.696 102.598 173.507 102.103 173.507 101.39V99.2483H172.611V97.9717H173.507V96.9319L174.835 96.5304V97.9717H175.998Z" fill="#FF425B"/>
</g>
<defs>
<filter id="filter2_d_491_17694" x="0.529409" y="69.4698" width="258.941" height="66.1809" filterUnits="userSpaceOnUse" color-interpolation-filters="sRGB">
<feFlood flood-opacity="0" result="BackgroundImageFix"/>
<feColorMatrix in="SourceAlpha" type="matrix" values="0 0 0 0 0 0 0 0 0 0 0 0 0 0 0 0 0 0 127 0" result="hardAlpha"/>
<feOffset dy="2.94138"/>
<feGaussianBlur stdDeviation="7.35346"/>
<feComposite in2="hardAlpha" operator="out"/>
<feColorMatrix type="matrix" values="0 0 0 0 0.156863 0 0 0 0 0.462745 0 0 0 0 1 0 0 0 0.2 0"/>
<feBlend mode="normal" in2="BackgroundImageFix" result="effect1_dropShadow_491_17694"/>
<feBlend mode="normal" in="SourceGraphic" in2="effect1_dropShadow_491_17694" result="shape"/>
</filter>
</defs>
</svg>
