<svg width="19" height="19" viewBox="0 0 19 19" fill="none" xmlns="http://www.w3.org/2000/svg">
<mask id="mask0_454_32193" style="mask-type:alpha" maskUnits="userSpaceOnUse" x="0" y="0" width="19" height="19">
<path fill-rule="evenodd" clip-rule="evenodd" d="M11.5195 9.52538C11.5195 9.114 11.853 8.78052 12.2644 8.78052H12.2711C12.6825 8.78052 13.016 9.114 13.016 9.52538C13.016 9.93676 12.6825 10.2702 12.2711 10.2702H12.2644C11.853 10.2702 11.5195 9.93676 11.5195 9.52538Z" fill="#717375"/>
<path fill-rule="evenodd" clip-rule="evenodd" d="M8.53418 9.52538C8.53418 9.114 8.86767 8.78052 9.27904 8.78052H9.28575C9.69712 8.78052 10.0306 9.114 10.0306 9.52538C10.0306 9.93676 9.69712 10.2702 9.28575 10.2702H9.27904C8.86767 10.2702 8.53418 9.93676 8.53418 9.52538Z" fill="#717375"/>
<path fill-rule="evenodd" clip-rule="evenodd" d="M5.54883 9.52538C5.54883 9.114 5.88231 8.78052 6.29369 8.78052H6.30039C6.71177 8.78052 7.04526 9.114 7.04526 9.52538C7.04526 9.93676 6.71177 10.2702 6.30039 10.2702H6.29369C5.88231 10.2702 5.54883 9.93676 5.54883 9.52538Z" fill="#717375"/>
<path fill-rule="evenodd" clip-rule="evenodd" d="M14.2032 4.34481C11.5155 1.65604 7.14818 1.65604 4.46046 4.34481L4.46035 4.34493C2.35545 6.44942 1.89834 9.56897 3.07973 12.122C3.0837 12.1305 3.08745 12.1392 3.09097 12.148C3.15963 12.3185 3.15808 12.5118 3.15499 12.6212C3.15111 12.7584 3.13593 12.9166 3.11718 13.0775C3.09946 13.2296 3.07695 13.3972 3.05408 13.5675L3.04932 13.6029C3.02454 13.7876 2.99931 13.9771 2.97729 14.1668C2.93263 14.5517 2.90458 14.9112 2.91706 15.1987C2.92328 15.342 2.93894 15.4482 2.95895 15.5209C2.96568 15.5454 2.97186 15.5623 2.97641 15.5732C2.98729 15.5777 3.00417 15.5839 3.02869 15.5906C3.10148 15.6106 3.20767 15.6263 3.35096 15.6325C3.6385 15.6449 3.99793 15.6169 4.38278 15.5723C4.57255 15.5503 4.76203 15.5251 4.94662 15.5003L4.9818 15.4956C5.15221 15.4727 5.31986 15.4502 5.47202 15.4325C5.63289 15.4138 5.79103 15.3987 5.92829 15.3948C6.03761 15.3917 6.23089 15.3902 6.40141 15.4589C6.41012 15.4624 6.41874 15.4661 6.42726 15.47C8.98078 16.651 12.0991 16.1944 14.2032 14.0893L14.2033 14.0893C16.8914 11.4008 16.8967 7.03796 14.2033 4.34492L14.2032 4.34481ZM14.9933 3.55482C11.8692 0.429609 6.79431 0.429643 3.67026 3.55492C1.239 5.98581 0.701766 9.57932 2.0383 12.5312C2.0387 12.5443 2.03889 12.5634 2.03815 12.5896C2.03568 12.6767 2.02516 12.7957 2.0074 12.9482C1.99086 13.0902 1.9696 13.2484 1.94629 13.422L1.94196 13.4543C1.91724 13.6385 1.89076 13.8371 1.86744 14.0381C1.82144 14.4346 1.78431 14.8668 1.80082 15.2472C1.80909 15.4378 1.83146 15.6346 1.88161 15.817C1.93061 15.9953 2.01731 16.2012 2.18293 16.3668L2.18318 16.3671C2.34885 16.5326 2.55469 16.6191 2.7329 16.6681C2.9153 16.7181 3.11203 16.7405 3.30262 16.7487C3.68284 16.7652 4.11502 16.7281 4.51147 16.6821C4.71236 16.6588 4.91096 16.6324 5.09511 16.6077L5.12708 16.6034C5.30077 16.5801 5.45913 16.5589 5.60114 16.5423C5.75357 16.5246 5.87261 16.5141 5.95968 16.5116C5.98591 16.5109 6.00503 16.5111 6.01809 16.5115C8.97026 17.8474 12.5627 17.311 14.9934 14.8793C18.1171 11.7551 18.1237 6.68485 14.9933 3.55482Z" fill="#717375"/>
</mask>
<g mask="url(#mask0_454_32193)">
<rect width="17.8767" height="17.8767" transform="translate(0.393555 0.279785)" fill="white"/>
</g>
</svg>
