<svg width="15" height="14" viewBox="0 0 15 14" fill="none" xmlns="http://www.w3.org/2000/svg">
<g clip-path="url(#clip0_758_31684)">
<path d="M5.69246 8.46896C5.69246 8.46896 6.32246 9.02896 7.37246 9.02896C8.42246 9.02896 9.05246 8.46896 9.05246 8.46896M10.1725 5.66896C10.1725 5.97824 9.92174 6.22896 9.61246 6.22896C9.30318 6.22896 9.05246 5.97824 9.05246 5.66896C9.05246 5.35969 9.30318 5.10896 9.61246 5.10896C9.92174 5.10896 10.1725 5.35969 10.1725 5.66896ZM12.9725 6.78896C12.9725 9.88176 10.4653 12.389 7.37246 12.389C4.27967 12.389 1.77246 9.88176 1.77246 6.78896C1.77246 3.69617 4.27967 1.18896 7.37246 1.18896C10.4653 1.18896 12.9725 3.69617 12.9725 6.78896ZM5.69246 5.66896C5.69246 5.97824 5.44174 6.22896 5.13246 6.22896C4.82318 6.22896 4.57246 5.97824 4.57246 5.66896C4.57246 5.35969 4.82318 5.10896 5.13246 5.10896C5.44174 5.10896 5.69246 5.35969 5.69246 5.66896Z" stroke="white" stroke-width="0.84" stroke-linecap="round" stroke-linejoin="round"/>
</g>
<defs>
<clipPath id="clip0_758_31684">
<rect width="13.44" height="13.44" fill="white" transform="translate(0.652344 0.0688477)"/>
</clipPath>
</defs>
</svg>
