<svg width="17" height="12" viewBox="0 0 17 12" fill="none" xmlns="http://www.w3.org/2000/svg">
<path fill-rule="evenodd" clip-rule="evenodd" d="M11.7316 8.84608C11.7911 10.1933 10.7038 11.3325 9.30327 11.3898C9.20011 11.3941 4.171 11.384 4.171 11.384C2.77725 11.4898 1.55743 10.4883 1.4475 9.14611C1.43921 9.0461 1.44147 3.64997 1.44147 3.64997C1.37973 2.30131 2.46552 1.15918 3.8668 1.09975C3.97146 1.09468 8.9938 1.1041 8.9938 1.1041C10.3943 0.999742 11.6179 2.00853 11.7263 3.35719C11.7339 3.4543 11.7316 8.84608 11.7316 8.84608Z" stroke="white" stroke-width="1.01219" stroke-linecap="round" stroke-linejoin="round"/>
<path d="M11.7339 4.75813L14.1554 2.77635C14.7555 2.28513 15.6555 2.71311 15.6548 3.48744L15.646 8.89156C15.6452 9.66589 14.7444 10.0902 14.1459 9.59898L11.7339 7.61719" stroke="white" stroke-width="1.01219" stroke-linecap="round" stroke-linejoin="round"/>
</svg>
