<svg width="20" height="20" viewBox="0 0 20 20" fill="none" xmlns="http://www.w3.org/2000/svg">
<path fill-rule="evenodd" clip-rule="evenodd" d="M2.4219 10.3413C2.41966 11.3266 2.37569 12.6706 2.98529 13.173C3.55391 13.6416 3.9541 13.5208 4.99221 13.597C6.03106 13.6739 8.22354 16.7277 9.91373 15.7618C10.7857 15.0761 10.8505 13.6387 10.8505 10.3413C10.8505 7.04387 10.7857 5.60646 9.91373 4.92081C8.22354 3.95415 6.03106 7.00865 4.99221 7.08555C3.9541 7.16174 3.55391 7.04099 2.98529 7.50959C2.37569 8.01196 2.41966 9.35594 2.4219 10.3413Z" stroke="white" stroke-width="1.01219" stroke-linecap="round" stroke-linejoin="round"/>
<path d="M16.1104 5.45605C18.1538 8.39772 18.1605 12.278 16.1104 15.2254" stroke="white" stroke-width="1.01219" stroke-linecap="round" stroke-linejoin="round"/>
<path d="M14.105 7.38818C15.1558 9.22376 15.1558 11.4654 14.105 13.2952" stroke="white" stroke-width="1.01219" stroke-linecap="round" stroke-linejoin="round"/>
</svg>
