<svg width="256" height="152" viewBox="0 0 256 152" fill="none" xmlns="http://www.w3.org/2000/svg">
<rect y="0.79071" width="256" height="150.419" rx="18.3836" fill="black" fill-opacity="0.6"/>
<mask id="mask0_29274_17400" style="mask-type:alpha" maskUnits="userSpaceOnUse" x="88" y="18" width="19" height="19">
<path d="M100.579 25.4628C101.942 24.3824 103.771 23.3372 104.117 23.7115C104.689 24.3259 104.64 30.1729 104.117 30.7308C103.799 31.0768 101.956 30.0317 100.579 28.9583" stroke="#717375" stroke-width="1.21332" stroke-linecap="round" stroke-linejoin="round"/>
<path fill-rule="evenodd" clip-rule="evenodd" d="M90.4678 27.2161C90.4678 23.3661 91.7466 22.083 95.5846 22.083C99.422 22.083 100.701 23.3661 100.701 27.2161C100.701 31.0654 99.422 32.3492 95.5846 32.3492C91.7466 32.3492 90.4678 31.0654 90.4678 27.2161Z" stroke="#717375" stroke-width="1.21332" stroke-linecap="round" stroke-linejoin="round"/>
</mask>
<g mask="url(#mask0_29274_17400)">
<rect width="17.7954" height="17.7954" transform="translate(88.6025 18.2916)" fill="white"/>
</g>
<path d="M115.088 31.1893H113.828L110.828 22.7893H112.028L114.464 29.7973L116.888 22.7893H118.1L115.088 31.1893ZM119.27 24.0973C119.07 24.0973 118.902 24.0293 118.766 23.8933C118.63 23.7573 118.562 23.5933 118.562 23.4013C118.562 23.2093 118.63 23.0453 118.766 22.9093C118.902 22.7653 119.07 22.6933 119.27 22.6933C119.462 22.6933 119.626 22.7653 119.762 22.9093C119.898 23.0453 119.966 23.2093 119.966 23.4013C119.966 23.5933 119.898 23.7573 119.762 23.8933C119.626 24.0293 119.462 24.0973 119.27 24.0973ZM119.786 31.1893H118.742V25.1893H119.786V31.1893ZM126.347 26.2213V22.7893H127.391V31.1893H126.347V30.1573C125.835 30.9493 125.079 31.3453 124.079 31.3453C123.231 31.3453 122.515 31.0413 121.931 30.4333C121.339 29.8173 121.043 29.0693 121.043 28.1893C121.043 27.3173 121.339 26.5733 121.931 25.9573C122.523 25.3413 123.239 25.0333 124.079 25.0333C125.079 25.0333 125.835 25.4293 126.347 26.2213ZM124.211 30.3373C124.819 30.3373 125.327 30.1333 125.735 29.7253C126.143 29.3013 126.347 28.7893 126.347 28.1893C126.347 27.5813 126.143 27.0733 125.735 26.6653C125.327 26.2493 124.819 26.0413 124.211 26.0413C123.611 26.0413 123.107 26.2493 122.699 26.6653C122.291 27.0733 122.087 27.5813 122.087 28.1893C122.087 28.7893 122.291 29.3013 122.699 29.7253C123.107 30.1333 123.611 30.3373 124.211 30.3373ZM134.733 28.6693H129.705C129.809 29.1973 130.053 29.6133 130.437 29.9173C130.821 30.2133 131.301 30.3613 131.877 30.3613C132.669 30.3613 133.245 30.0693 133.605 29.4853L134.493 29.9893C133.901 30.8933 133.021 31.3453 131.853 31.3453C130.909 31.3453 130.133 31.0493 129.525 30.4573C128.933 29.8493 128.637 29.0933 128.637 28.1893C128.637 27.2773 128.929 26.5253 129.513 25.9333C130.097 25.3333 130.853 25.0333 131.781 25.0333C132.661 25.0333 133.377 25.3453 133.929 25.9693C134.489 26.5773 134.769 27.3213 134.769 28.2013C134.769 28.3533 134.757 28.5093 134.733 28.6693ZM131.781 26.0173C131.229 26.0173 130.765 26.1733 130.389 26.4853C130.021 26.7973 129.793 27.2213 129.705 27.7573H133.713C133.625 27.2053 133.405 26.7773 133.053 26.4733C132.701 26.1693 132.277 26.0173 131.781 26.0173ZM141.021 30.4333C140.413 31.0413 139.665 31.3453 138.777 31.3453C137.889 31.3453 137.141 31.0413 136.533 30.4333C135.925 29.8253 135.621 29.0773 135.621 28.1893C135.621 27.3013 135.925 26.5533 136.533 25.9453C137.141 25.3373 137.889 25.0333 138.777 25.0333C139.665 25.0333 140.413 25.3373 141.021 25.9453C141.637 26.5613 141.945 27.3093 141.945 28.1893C141.945 29.0693 141.637 29.8173 141.021 30.4333ZM138.777 30.3253C139.377 30.3253 139.881 30.1213 140.289 29.7133C140.697 29.3053 140.901 28.7973 140.901 28.1893C140.901 27.5813 140.697 27.0733 140.289 26.6653C139.881 26.2573 139.377 26.0533 138.777 26.0533C138.185 26.0533 137.685 26.2573 137.277 26.6653C136.869 27.0733 136.665 27.5813 136.665 28.1893C136.665 28.7973 136.869 29.3053 137.277 29.7133C137.685 30.1213 138.185 30.3253 138.777 30.3253ZM150.232 31.3453C148.952 31.3453 147.9 30.9253 147.076 30.0853C146.252 29.2533 145.84 28.2213 145.84 26.9893C145.84 25.7573 146.252 24.7253 147.076 23.8933C147.9 23.0533 148.952 22.6333 150.232 22.6333C150.992 22.6333 151.696 22.8173 152.344 23.1853C152.992 23.5533 153.496 24.0493 153.856 24.6733L152.884 25.2373C152.644 24.7733 152.284 24.4053 151.804 24.1333C151.332 23.8533 150.808 23.7133 150.232 23.7133C149.256 23.7133 148.464 24.0253 147.856 24.6493C147.248 25.2653 146.944 26.0453 146.944 26.9893C146.944 27.9253 147.248 28.7013 147.856 29.3173C148.464 29.9413 149.256 30.2533 150.232 30.2533C150.808 30.2533 151.332 30.1173 151.804 29.8453C152.284 29.5653 152.644 29.1973 152.884 28.7413L153.856 29.2933C153.504 29.9173 153.004 30.4173 152.356 30.7933C151.716 31.1613 151.008 31.3453 150.232 31.3453ZM159.957 26.2213V25.1893H161.001V31.1893H159.957V30.1573C159.445 30.9493 158.689 31.3453 157.689 31.3453C156.841 31.3453 156.125 31.0413 155.541 30.4333C154.949 29.8173 154.653 29.0693 154.653 28.1893C154.653 27.3173 154.949 26.5733 155.541 25.9573C156.133 25.3413 156.849 25.0333 157.689 25.0333C158.689 25.0333 159.445 25.4293 159.957 26.2213ZM157.821 30.3373C158.429 30.3373 158.937 30.1333 159.345 29.7253C159.753 29.3013 159.957 28.7893 159.957 28.1893C159.957 27.5813 159.753 27.0733 159.345 26.6653C158.937 26.2493 158.429 26.0413 157.821 26.0413C157.221 26.0413 156.717 26.2493 156.309 26.6653C155.901 27.0733 155.697 27.5813 155.697 28.1893C155.697 28.7893 155.901 29.3013 156.309 29.7253C156.717 30.1333 157.221 30.3373 157.821 30.3373ZM163.626 31.1893H162.582V22.4293H163.626V31.1893ZM166.263 31.1893H165.219V22.4293H166.263V31.1893Z" fill="white"/>
<rect x="13.2363" y="55.087" width="229.528" height="36.7673" rx="18.3836" fill="white"/>
<path d="M78.1692 69.7642H80.8561C81.5424 69.7642 82.1258 69.9976 82.6062 70.4643C83.0798 70.931 83.3166 71.504 83.3166 72.1835C83.3166 72.863 83.0798 73.436 82.6062 73.9027C82.1258 74.3694 81.5424 74.6028 80.8561 74.6028H79.5899V76.9706H78.1692V69.7642ZM79.5899 73.2748H80.8561C81.1581 73.2748 81.4086 73.1718 81.6076 72.9659C81.8067 72.7532 81.9062 72.4924 81.9062 72.1835C81.9062 71.8678 81.8067 71.607 81.6076 71.4011C81.4086 71.1952 81.1581 71.0923 80.8561 71.0923H79.5899V73.2748ZM87.75 72.4306V71.8232H89.078V76.9706H87.75V76.3632C87.3519 76.8642 86.7925 77.1147 86.0719 77.1147C85.3856 77.1147 84.7953 76.8539 84.3012 76.3323C83.8139 75.8039 83.5703 75.1587 83.5703 74.3969C83.5703 73.6419 83.8139 73.0002 84.3012 72.4718C84.7953 71.9433 85.3856 71.6791 86.0719 71.6791C86.7925 71.6791 87.3519 71.9296 87.75 72.4306ZM85.2998 75.447C85.5675 75.7146 85.9072 75.8485 86.319 75.8485C86.7308 75.8485 87.0705 75.7146 87.3382 75.447C87.6127 75.1724 87.75 74.8224 87.75 74.3969C87.75 73.9714 87.6127 73.6248 87.3382 73.3571C87.0705 73.0826 86.7308 72.9453 86.319 72.9453C85.9072 72.9453 85.5675 73.0826 85.2998 73.3571C85.0321 73.6248 84.8983 73.9714 84.8983 74.3969C84.8983 74.8224 85.0321 75.1724 85.2998 75.447ZM92.4956 75.2823L93.6384 71.8232H95.0591L93.1854 76.9706C92.9177 77.7118 92.5608 78.2472 92.1147 78.5766C91.6755 78.9129 91.1264 79.0639 90.4676 79.0296V77.7942C90.8176 77.8011 91.099 77.7256 91.3117 77.5677C91.5245 77.4099 91.6926 77.1559 91.8162 76.8059L89.7057 71.8232H91.1573L92.4956 75.2823ZM103.052 74.9528C103.052 75.5431 102.863 76.0303 102.486 76.4147C102.108 76.7922 101.604 77.0187 100.972 77.0941V78.0001H100.283V77.1044C99.7061 77.0633 99.2119 76.902 98.8001 76.6206C98.3883 76.3392 98.0932 75.9583 97.9148 75.4779L99.1398 74.7675C99.3595 75.3234 99.7404 75.6357 100.283 75.7043V73.9233H100.272L100.252 73.913C99.833 73.7621 99.459 73.5836 99.1295 73.3777C98.5736 73.0277 98.2751 72.4718 98.2339 71.7099C98.2339 71.0991 98.4295 70.6153 98.8207 70.2584C99.2325 69.8878 99.7198 69.6784 100.283 69.6304V68.7347H100.972V69.651C101.906 69.7677 102.565 70.2515 102.949 71.1026L101.755 71.8026C101.59 71.3908 101.329 71.1403 100.972 71.0511V72.7703C101.638 73.038 102.067 73.2404 102.259 73.3777C102.788 73.7621 103.052 74.2871 103.052 74.9528ZM99.6443 71.7202C99.6443 71.8712 99.6923 72.0051 99.7884 72.1217C99.8845 72.2316 100.049 72.3448 100.283 72.4615V71.0202C99.857 71.1026 99.6443 71.3359 99.6443 71.7202ZM100.972 74.2013V75.6838C101.412 75.5945 101.631 75.3543 101.631 74.9631C101.631 74.6543 101.412 74.4003 100.972 74.2013ZM107.837 69.7642L106.242 72.1012C106.99 72.1217 107.597 72.3654 108.064 72.8321C108.53 73.2988 108.764 73.889 108.764 74.6028C108.764 75.3372 108.52 75.9411 108.033 76.4147C107.546 76.8814 106.918 77.1147 106.149 77.1147C105.38 77.1147 104.752 76.8814 104.265 76.4147C103.784 75.9549 103.544 75.3509 103.544 74.6028C103.544 74.0606 103.685 73.5767 103.966 73.1512L106.211 69.7642H107.837ZM107.353 74.6028C107.353 74.2596 107.24 73.9817 107.014 73.7689C106.787 73.5493 106.499 73.4395 106.149 73.4395C105.799 73.4395 105.511 73.5459 105.284 73.7586C105.064 73.9714 104.955 74.2528 104.955 74.6028C104.955 74.9528 105.064 75.2376 105.284 75.4573C105.511 75.67 105.799 75.7764 106.149 75.7764C106.499 75.7764 106.787 75.67 107.014 75.4573C107.24 75.2376 107.353 74.9528 107.353 74.6028ZM116.544 69.7642V71.1231H113.661V72.8321H116.462V74.191H113.661V76.9706H112.241V69.7642H116.544ZM121.903 76.3323C121.381 76.8539 120.736 77.1147 119.968 77.1147C119.199 77.1147 118.554 76.8539 118.032 76.3323C117.51 75.8107 117.25 75.1656 117.25 74.3969C117.25 73.6351 117.51 72.9934 118.032 72.4718C118.561 71.9433 119.206 71.6791 119.968 71.6791C120.729 71.6791 121.374 71.9433 121.903 72.4718C122.431 73.0002 122.696 73.6419 122.696 74.3969C122.696 75.1587 122.431 75.8039 121.903 76.3323ZM118.969 75.4161C119.237 75.6838 119.569 75.8176 119.968 75.8176C120.366 75.8176 120.698 75.6838 120.966 75.4161C121.234 75.1484 121.368 74.8087 121.368 74.3969C121.368 73.9851 121.234 73.6454 120.966 73.3777C120.698 73.11 120.366 72.9762 119.968 72.9762C119.569 72.9762 119.237 73.11 118.969 73.3777C118.708 73.6522 118.578 73.992 118.578 74.3969C118.578 74.8018 118.708 75.1416 118.969 75.4161ZM124.958 71.8232V72.7085C125.075 72.386 125.274 72.1423 125.555 71.9776C125.836 71.806 126.159 71.7202 126.523 71.7202V73.2027C126.118 73.1478 125.754 73.2302 125.432 73.4498C125.116 73.6625 124.958 74.016 124.958 74.5101V76.9706H123.63V71.8232H124.958ZM133.476 76.9706H131.716L129.297 69.7642H130.841L132.601 75.3028L134.351 69.7642H135.906L133.476 76.9706ZM136.996 71.2055C136.777 71.2055 136.585 71.1266 136.42 70.9687C136.262 70.804 136.183 70.6118 136.183 70.3922C136.183 70.1726 136.262 69.9804 136.42 69.8157C136.585 69.651 136.777 69.5686 136.996 69.5686C137.223 69.5686 137.415 69.651 137.573 69.8157C137.738 69.9804 137.82 70.1726 137.82 70.3922C137.82 70.6118 137.738 70.804 137.573 70.9687C137.415 71.1266 137.223 71.2055 136.996 71.2055ZM137.666 76.9706H136.338V71.8232H137.666V76.9706ZM142.783 72.4306V69.7642H144.111V76.9706H142.783V76.3632C142.392 76.8642 141.836 77.1147 141.115 77.1147C140.422 77.1147 139.828 76.8539 139.334 76.3323C138.847 75.8039 138.603 75.1587 138.603 74.3969C138.603 73.6419 138.847 73.0002 139.334 72.4718C139.828 71.9433 140.422 71.6791 141.115 71.6791C141.836 71.6791 142.392 71.9296 142.783 72.4306ZM140.333 75.447C140.614 75.7146 140.957 75.8485 141.362 75.8485C141.774 75.8485 142.114 75.7146 142.381 75.447C142.649 75.1724 142.783 74.8224 142.783 74.3969C142.783 73.9714 142.649 73.6248 142.381 73.3571C142.114 73.0826 141.774 72.9453 141.362 72.9453C140.95 72.9453 140.607 73.0826 140.333 73.3571C140.065 73.6248 139.931 73.9714 139.931 74.3969C139.931 74.8224 140.065 75.1724 140.333 75.447ZM150.329 74.9425H146.448C146.619 75.5877 147.103 75.9102 147.899 75.9102C148.407 75.9102 148.791 75.7387 149.052 75.3955L150.123 76.0132C149.615 76.7476 148.867 77.1147 147.879 77.1147C147.028 77.1147 146.345 76.8574 145.83 76.3426C145.315 75.8279 145.058 75.1793 145.058 74.3969C145.058 73.6282 145.312 72.9831 145.82 72.4615C146.321 71.9399 146.973 71.6791 147.776 71.6791C148.537 71.6791 149.159 71.9399 149.639 72.4615C150.133 72.9831 150.38 73.6282 150.38 74.3969C150.38 74.541 150.363 74.7229 150.329 74.9425ZM146.427 73.913H149.052C148.977 73.5767 148.822 73.3194 148.589 73.1409C148.362 72.9625 148.091 72.8733 147.776 72.8733C147.419 72.8733 147.124 72.9659 146.89 73.1512C146.657 73.3297 146.503 73.5836 146.427 73.913ZM155.653 76.3323C155.131 76.8539 154.486 77.1147 153.717 77.1147C152.949 77.1147 152.303 76.8539 151.782 76.3323C151.26 75.8107 150.999 75.1656 150.999 74.3969C150.999 73.6351 151.26 72.9934 151.782 72.4718C152.31 71.9433 152.955 71.6791 153.717 71.6791C154.479 71.6791 155.124 71.9433 155.653 72.4718C156.181 73.0002 156.445 73.6419 156.445 74.3969C156.445 75.1587 156.181 75.8039 155.653 76.3323ZM152.719 75.4161C152.986 75.6838 153.319 75.8176 153.717 75.8176C154.115 75.8176 154.448 75.6838 154.716 75.4161C154.984 75.1484 155.117 74.8087 155.117 74.3969C155.117 73.9851 154.984 73.6454 154.716 73.3777C154.448 73.11 154.115 72.9762 153.717 72.9762C153.319 72.9762 152.986 73.11 152.719 73.3777C152.458 73.6522 152.328 73.992 152.328 74.3969C152.328 74.8018 152.458 75.1416 152.719 75.4161ZM163.433 77.1147C162.356 77.1147 161.46 76.7544 160.746 76.0338C160.039 75.32 159.686 74.4312 159.686 73.3674C159.686 72.2968 160.039 71.408 160.746 70.7011C161.46 69.9804 162.356 69.6201 163.433 69.6201C164.085 69.6201 164.686 69.7745 165.235 70.0834C165.791 70.3853 166.223 70.7971 166.532 71.3187L165.307 72.0291C165.128 71.7065 164.874 71.456 164.545 71.2776C164.215 71.0923 163.845 70.9996 163.433 70.9996C162.733 70.9996 162.167 71.2192 161.734 71.6585C161.309 72.1046 161.096 72.6742 161.096 73.3674C161.096 74.0537 161.309 74.62 161.734 75.0661C162.167 75.5053 162.733 75.7249 163.433 75.7249C163.845 75.7249 164.215 75.6357 164.545 75.4573C164.881 75.272 165.135 75.0215 165.307 74.7057L166.532 75.4161C166.223 75.9377 165.791 76.3529 165.235 76.6618C164.686 76.9637 164.085 77.1147 163.433 77.1147ZM171.285 72.4306V71.8232H172.613V76.9706H171.285V76.3632C170.887 76.8642 170.328 77.1147 169.607 77.1147C168.921 77.1147 168.33 76.8539 167.836 76.3323C167.349 75.8039 167.105 75.1587 167.105 74.3969C167.105 73.6419 167.349 73.0002 167.836 72.4718C168.33 71.9433 168.921 71.6791 169.607 71.6791C170.328 71.6791 170.887 71.9296 171.285 72.4306ZM168.835 75.447C169.102 75.7146 169.442 75.8485 169.854 75.8485C170.266 75.8485 170.606 75.7146 170.873 75.447C171.148 75.1724 171.285 74.8224 171.285 74.3969C171.285 73.9714 171.148 73.6248 170.873 73.3571C170.606 73.0826 170.266 72.9453 169.854 72.9453C169.442 72.9453 169.102 73.0826 168.835 73.3571C168.567 73.6248 168.433 73.9714 168.433 74.3969C168.433 74.8224 168.567 75.1724 168.835 75.447ZM175.145 76.9706H173.817V69.4554H175.145V76.9706ZM177.689 76.9706H176.361V69.4554H177.689V76.9706Z" fill="#FF425B"/>
<circle cx="48.3892" cy="122.281" r="16.4271" fill="#FF3156"/>
<path fill-rule="evenodd" clip-rule="evenodd" d="M48.7876 122.149C44.2676 122.15 46.369 125.276 43.4917 125.277C40.7173 125.278 39.6419 125.797 39.6424 122.282C39.6856 121.885 38.9557 118.357 48.7875 118.356C58.6204 118.354 57.8932 121.882 57.9363 122.28C57.9364 125.804 56.8612 125.275 54.0868 125.275C51.2089 125.276 53.3075 122.148 48.7876 122.149Z" stroke="white" stroke-width="1.01219" stroke-linecap="round" stroke-linejoin="round"/>
<circle opacity="0.4" cx="101.463" cy="122.281" r="16.4271" fill="black"/>
<path fill-rule="evenodd" clip-rule="evenodd" d="M104.637 125.186C104.696 126.534 103.609 127.673 102.209 127.73C102.105 127.735 97.0763 127.724 97.0763 127.724C95.6825 127.83 94.4627 126.829 94.3528 125.486C94.3445 125.386 94.3467 119.99 94.3467 119.99C94.285 118.642 95.3708 117.5 96.7721 117.44C96.8767 117.435 101.899 117.444 101.899 117.444C103.3 117.34 104.523 118.349 104.632 119.698C104.639 119.795 104.637 125.186 104.637 125.186Z" stroke="white" stroke-width="1.01219" stroke-linecap="round" stroke-linejoin="round"/>
<path d="M104.639 121.099L107.061 119.117C107.661 118.626 108.561 119.054 108.56 119.828L108.551 125.232C108.551 126.007 107.65 126.431 107.051 125.94L104.639 123.958" stroke="white" stroke-width="1.01219" stroke-linecap="round" stroke-linejoin="round"/>
<circle opacity="0.4" cx="154.537" cy="122.281" r="16.4271" fill="black"/>
<path fill-rule="evenodd" clip-rule="evenodd" d="M147.326 122.682C147.324 123.667 147.28 125.011 147.89 125.514C148.458 125.982 148.859 125.862 149.897 125.938C150.936 126.015 153.128 129.069 154.818 128.103C155.69 127.417 155.755 125.98 155.755 122.682C155.755 119.385 155.69 117.947 154.818 117.262C153.128 116.295 150.936 119.35 149.897 119.426C148.859 119.503 148.458 119.382 147.89 119.85C147.28 120.353 147.324 121.697 147.326 122.682Z" stroke="white" stroke-width="1.01219" stroke-linecap="round" stroke-linejoin="round"/>
<path d="M161.015 117.797C163.058 120.739 163.065 124.619 161.015 127.567" stroke="white" stroke-width="1.01219" stroke-linecap="round" stroke-linejoin="round"/>
<path d="M159.009 119.729C160.06 121.564 160.06 123.806 159.009 125.636" stroke="white" stroke-width="1.01219" stroke-linecap="round" stroke-linejoin="round"/>
<circle opacity="0.4" cx="207.611" cy="122.281" r="16.4271" fill="black"/>
<path d="M208.012 130.695V128.162" stroke="white" stroke-width="1.01219" stroke-linecap="round" stroke-linejoin="round"/>
<path fill-rule="evenodd" clip-rule="evenodd" d="M208.012 124.964V124.964C206.215 124.964 204.757 123.501 204.757 121.695V117.939C204.757 116.133 206.215 114.669 208.012 114.669C209.81 114.669 211.267 116.133 211.267 117.939V121.695C211.267 123.501 209.81 124.964 208.012 124.964Z" stroke="white" stroke-width="1.01219" stroke-linecap="round" stroke-linejoin="round"/>
<path d="M214.423 121.721C214.423 125.278 211.553 128.162 208.012 128.162C204.471 128.162 201.602 125.278 201.602 121.721" stroke="white" stroke-width="1.01219" stroke-linecap="round" stroke-linejoin="round"/>
</svg>
