<svg width="256" height="151" viewBox="0 0 256 151" fill="none" xmlns="http://www.w3.org/2000/svg">
<rect y="-0.563721" width="256" height="151.127" rx="18.3836" fill="black" fill-opacity="0.6"/>
<mask id="mask0_29257_240" style="mask-type:alpha" maskUnits="userSpaceOnUse" x="82" y="11" width="18" height="19">
<path d="M91.0001 24.5927C90.6931 24.5927 90.444 24.3435 90.444 24.0366V22.3898C90.444 22.0828 90.6931 21.8337 91.0001 21.8337C91.307 21.8337 91.5562 22.0828 91.5562 22.3898V24.0366C91.5562 24.3435 91.307 24.5927 91.0001 24.5927Z" fill="#717375"/>
<path fill-rule="evenodd" clip-rule="evenodd" d="M94.9369 18.5111C96.5664 19.2533 97.2357 20.6973 97.2357 23.0862C97.2357 26.8818 95.5459 28.2928 91 28.2928C86.454 28.2928 84.7642 26.8818 84.7642 23.0862C84.7642 20.6976 85.4334 19.2536 87.0624 18.5113V17.2575C87.0973 15.1042 88.8042 13.404 90.9478 13.3766C92.014 13.3818 92.9957 13.7607 93.7483 14.4947C94.5024 15.2303 94.9243 16.2135 94.9369 17.2656V18.5111ZM94.1185 19.3562C94.1648 19.381 94.2151 19.3995 94.2681 19.4104C95.6519 19.9439 96.1235 21.0518 96.1235 23.0862C96.1235 26.2626 94.9743 27.1806 91 27.1806C87.0257 27.1806 85.8764 26.2626 85.8764 23.0862C85.8764 21.0514 86.3482 19.9436 87.7325 19.4101C87.7846 19.3992 87.8341 19.3811 87.8798 19.3567C88.6416 19.0968 89.6603 18.9925 91 18.9925C92.3387 18.9925 93.3568 19.0966 94.1185 19.3562ZM88.1746 18.1442V17.2664C88.1991 15.7285 89.4233 14.5081 90.9626 14.4888C91.7308 14.4836 92.4322 14.7646 92.9727 15.2918C93.5133 15.819 93.8158 16.5241 93.8247 17.2723V18.1441C93.0406 17.9636 92.1046 17.8803 91 17.8803C89.895 17.8803 88.9589 17.9636 88.1746 18.1442Z" fill="#717375"/>
</mask>
<g mask="url(#mask0_29257_240)">
<rect width="17.7954" height="17.7954" transform="translate(82.1023 11.9371)" fill="white"/>
</g>
<path d="M105.963 16.4348V23.7788H109.587V24.8348H104.847V16.4348H105.963ZM115.428 24.0788C114.82 24.6868 114.072 24.9908 113.184 24.9908C112.296 24.9908 111.548 24.6868 110.94 24.0788C110.332 23.4708 110.028 22.7228 110.028 21.8348C110.028 20.9468 110.332 20.1988 110.94 19.5908C111.548 18.9828 112.296 18.6788 113.184 18.6788C114.072 18.6788 114.82 18.9828 115.428 19.5908C116.044 20.2068 116.352 20.9548 116.352 21.8348C116.352 22.7148 116.044 23.4628 115.428 24.0788ZM113.184 23.9708C113.784 23.9708 114.288 23.7668 114.696 23.3588C115.104 22.9508 115.308 22.4428 115.308 21.8348C115.308 21.2268 115.104 20.7188 114.696 20.3108C114.288 19.9028 113.784 19.6988 113.184 19.6988C112.592 19.6988 112.092 19.9028 111.684 20.3108C111.276 20.7188 111.072 21.2268 111.072 21.8348C111.072 22.4428 111.276 22.9508 111.684 23.3588C112.092 23.7668 112.592 23.9708 113.184 23.9708ZM120.402 24.9908C119.498 24.9908 118.746 24.6908 118.146 24.0908C117.546 23.4828 117.246 22.7308 117.246 21.8348C117.246 20.9388 117.546 20.1908 118.146 19.5908C118.746 18.9828 119.498 18.6788 120.402 18.6788C120.994 18.6788 121.526 18.8228 121.998 19.1108C122.47 19.3908 122.822 19.7708 123.054 20.2508L122.178 20.7548C122.026 20.4348 121.79 20.1788 121.47 19.9868C121.158 19.7948 120.802 19.6988 120.402 19.6988C119.802 19.6988 119.298 19.9028 118.89 20.3108C118.49 20.7268 118.29 21.2348 118.29 21.8348C118.29 22.4268 118.49 22.9308 118.89 23.3468C119.298 23.7548 119.802 23.9588 120.402 23.9588C120.802 23.9588 121.162 23.8668 121.482 23.6828C121.802 23.4908 122.046 23.2348 122.214 22.9148L123.102 23.4308C122.838 23.9108 122.466 24.2908 121.986 24.5708C121.506 24.8508 120.978 24.9908 120.402 24.9908ZM126.245 21.7388L129.209 24.8348H127.913L125.177 21.9908V24.8348H124.133V16.4348H125.177V21.4868L127.769 18.8348H129.113L126.245 21.7388ZM132.604 16.4348H138.664V17.4908H136.18V24.8348H135.076V17.4908H132.604V16.4348ZM143.635 24.0788C143.027 24.6868 142.279 24.9908 141.391 24.9908C140.503 24.9908 139.755 24.6868 139.147 24.0788C138.539 23.4708 138.235 22.7228 138.235 21.8348C138.235 20.9468 138.539 20.1988 139.147 19.5908C139.755 18.9828 140.503 18.6788 141.391 18.6788C142.279 18.6788 143.027 18.9828 143.635 19.5908C144.251 20.2068 144.559 20.9548 144.559 21.8348C144.559 22.7148 144.251 23.4628 143.635 24.0788ZM141.391 23.9708C141.991 23.9708 142.495 23.7668 142.903 23.3588C143.311 22.9508 143.515 22.4428 143.515 21.8348C143.515 21.2268 143.311 20.7188 142.903 20.3108C142.495 19.9028 141.991 19.6988 141.391 19.6988C140.799 19.6988 140.299 19.9028 139.891 20.3108C139.483 20.7188 139.279 21.2268 139.279 21.8348C139.279 22.4428 139.483 22.9508 139.891 23.3588C140.299 23.7668 140.799 23.9708 141.391 23.9708ZM152.353 24.8348H151.093L148.093 16.4348H149.293L151.729 23.4428L154.153 16.4348H155.365L152.353 24.8348ZM156.536 17.7428C156.336 17.7428 156.168 17.6748 156.032 17.5388C155.896 17.4028 155.828 17.2388 155.828 17.0468C155.828 16.8548 155.896 16.6908 156.032 16.5548C156.168 16.4108 156.336 16.3388 156.536 16.3388C156.728 16.3388 156.892 16.4108 157.028 16.5548C157.164 16.6908 157.232 16.8548 157.232 17.0468C157.232 17.2388 157.164 17.4028 157.028 17.5388C156.892 17.6748 156.728 17.7428 156.536 17.7428ZM157.052 24.8348H156.008V18.8348H157.052V24.8348ZM164.405 22.3148H159.377C159.481 22.8428 159.725 23.2588 160.109 23.5628C160.493 23.8588 160.973 24.0068 161.549 24.0068C162.341 24.0068 162.917 23.7148 163.277 23.1308L164.165 23.6348C163.573 24.5388 162.693 24.9908 161.525 24.9908C160.581 24.9908 159.805 24.6948 159.197 24.1028C158.605 23.4948 158.309 22.7388 158.309 21.8348C158.309 20.9228 158.601 20.1708 159.185 19.5788C159.769 18.9788 160.525 18.6788 161.453 18.6788C162.333 18.6788 163.049 18.9908 163.601 19.6148C164.161 20.2228 164.441 20.9668 164.441 21.8468C164.441 21.9988 164.429 22.1548 164.405 22.3148ZM161.453 19.6628C160.901 19.6628 160.437 19.8188 160.061 20.1308C159.693 20.4428 159.465 20.8668 159.377 21.4028H163.385C163.297 20.8508 163.077 20.4228 162.725 20.1188C162.373 19.8148 161.949 19.6628 161.453 19.6628ZM171.155 23.4068L172.475 18.8348H173.567L171.707 24.8348H170.639L169.235 20.3948L167.831 24.8348H166.763L164.903 18.8348H165.995L167.315 23.3948L168.731 18.8348H169.739L171.155 23.4068Z" fill="white"/>
<path d="M38.3932 36.0853H43.2207V36.9265H41.2419V42.7769H40.3624V36.9265H38.3932V36.0853ZM47.1804 42.1747C46.6961 42.659 46.1002 42.9012 45.3928 42.9012C44.6854 42.9012 44.0895 42.659 43.6052 42.1747C43.1208 41.6903 42.8787 41.0944 42.8787 40.387C42.8787 39.6796 43.1208 39.0838 43.6052 38.5994C44.0895 38.1151 44.6854 37.8729 45.3928 37.8729C46.1002 37.8729 46.6961 38.1151 47.1804 38.5994C47.6712 39.0901 47.9165 39.686 47.9165 40.387C47.9165 41.0881 47.6712 41.6839 47.1804 42.1747ZM45.3928 42.0886C45.8708 42.0886 46.2723 41.9261 46.5973 41.6011C46.9223 41.2761 47.0849 40.8714 47.0849 40.387C47.0849 39.9027 46.9223 39.498 46.5973 39.173C46.2723 38.848 45.8708 38.6855 45.3928 38.6855C44.9212 38.6855 44.5229 38.848 44.1979 39.173C43.8729 39.498 43.7104 39.9027 43.7104 40.387C43.7104 40.8714 43.8729 41.2761 44.1979 41.6011C44.5229 41.9261 44.9212 42.0886 45.3928 42.0886ZM53.8488 42.7769H52.8164L50.8949 36.0853H51.8317L53.3613 41.5915L54.9864 36.0853H55.885L57.5101 41.5915L59.0396 36.0853H59.9764L58.055 42.7769H57.0225L55.4357 37.4332L53.8488 42.7769ZM64.2345 38.8193V37.9972H65.0662V42.7769H64.2345V41.9548C63.8266 42.5857 63.2244 42.9012 62.4278 42.9012C61.7522 42.9012 61.1819 42.659 60.7166 42.1747C60.245 41.6839 60.0092 41.0881 60.0092 40.387C60.0092 39.6924 60.245 39.0997 60.7166 38.609C61.1882 38.1183 61.7586 37.8729 62.4278 37.8729C63.2244 37.8729 63.8266 38.1884 64.2345 38.8193ZM62.5329 42.0982C63.0173 42.0982 63.422 41.9357 63.747 41.6107C64.072 41.2729 64.2345 40.865 64.2345 40.387C64.2345 39.9027 64.072 39.498 63.747 39.173C63.422 38.8416 63.0173 38.6759 62.5329 38.6759C62.055 38.6759 61.6535 38.8416 61.3284 39.173C61.0034 39.498 60.8409 39.9027 60.8409 40.387C60.8409 40.865 61.0034 41.2729 61.3284 41.6107C61.6535 41.9357 62.055 42.0982 62.5329 42.0982ZM68.9264 37.9972V38.8002H67.655V41.3908C67.655 41.6266 67.6996 41.7955 67.7889 41.8974C67.8845 41.993 68.0278 42.044 68.219 42.0504C68.4102 42.0504 68.646 42.044 68.9264 42.0313V42.7769C68.1935 42.8725 67.6582 42.812 67.3204 42.5953C66.989 42.3786 66.8233 41.9771 66.8233 41.3908V38.8002H65.877V37.9972H66.8233V36.9074L67.655 36.6588V37.9972H68.9264ZM71.9148 42.9012C71.1947 42.9012 70.5956 42.6622 70.1176 42.1842C69.6397 41.6999 69.4007 41.1008 69.4007 40.387C69.4007 39.6733 69.6397 39.0774 70.1176 38.5994C70.5956 38.1151 71.1947 37.8729 71.9148 37.8729C72.3864 37.8729 72.8102 37.9876 73.1862 38.217C73.5622 38.4401 73.8427 38.7428 74.0275 39.1252L73.3296 39.5267C73.2085 39.2718 73.0205 39.0678 72.7656 38.9149C72.5171 38.7619 72.2335 38.6855 71.9148 38.6855C71.4369 38.6855 71.0354 38.848 70.7103 39.173C70.3917 39.5044 70.2324 39.9091 70.2324 40.387C70.2324 40.8586 70.3917 41.2601 70.7103 41.5915C71.0354 41.9166 71.4369 42.0791 71.9148 42.0791C72.2335 42.0791 72.5203 42.0058 72.7752 41.8592C73.0301 41.7063 73.2245 41.5023 73.3583 41.2474L74.0657 41.6585C73.8554 42.0408 73.5591 42.3436 73.1767 42.5666C72.7943 42.7897 72.3737 42.9012 71.9148 42.9012ZM77.2672 37.8729C77.828 37.8729 78.2773 38.0513 78.6151 38.4082C78.9528 38.7587 79.1217 39.2367 79.1217 39.8422V42.7769H78.29V39.8899C78.29 39.5076 78.1849 39.208 77.9746 38.9914C77.7643 38.7747 77.4743 38.6663 77.1047 38.6663C76.6777 38.6663 76.3399 38.8002 76.0914 39.0678C75.8428 39.3291 75.7185 39.7211 75.7185 40.2436V42.7769H74.8869V36.0853H75.7185V38.6855C76.0499 38.1437 76.5661 37.8729 77.2672 37.8729ZM82.2138 36.0853H87.0413V36.9265H85.0625V42.7769H84.183V36.9265H82.2138V36.0853ZM90.2154 37.8729C90.7763 37.8729 91.2256 38.0513 91.5633 38.4082C91.9011 38.7587 92.07 39.2367 92.07 39.8422V42.7769H91.2383V39.8899C91.2383 39.5076 91.1332 39.208 90.9228 38.9914C90.7125 38.7747 90.4226 38.6663 90.0529 38.6663C89.6259 38.6663 89.2882 38.8002 89.0396 39.0678C88.7911 39.3291 88.6668 39.7211 88.6668 40.2436V42.7769H87.8351V36.0853H88.6668V38.6855C88.9982 38.1437 89.5144 37.8729 90.2154 37.8729ZM97.8196 40.7694H93.8141C93.897 41.19 94.0914 41.5214 94.3973 41.7636C94.7032 41.9994 95.0856 42.1173 95.5444 42.1173C96.1753 42.1173 96.6342 41.8847 96.921 41.4195L97.6284 41.821C97.1568 42.5411 96.4557 42.9012 95.5253 42.9012C94.7733 42.9012 94.1551 42.6654 93.6707 42.1938C93.1991 41.7094 92.9633 41.1072 92.9633 40.387C92.9633 39.6605 93.196 39.0615 93.6612 38.5899C94.1264 38.1119 94.7287 37.8729 95.4679 37.8729C96.169 37.8729 96.7393 38.1214 97.1791 38.6185C97.6252 39.1029 97.8482 39.6956 97.8482 40.3966C97.8482 40.5177 97.8387 40.642 97.8196 40.7694ZM95.4679 38.6568C95.0282 38.6568 94.6586 38.781 94.359 39.0296C94.0659 39.2781 93.8842 39.6159 93.8141 40.0429H97.007C96.9369 39.6032 96.7617 39.2622 96.4812 39.02C96.2008 38.7779 95.8631 38.6568 95.4679 38.6568ZM105.133 36.0853V36.9265H102.169V39.0965H105.008V39.9377H102.169V42.7769H101.28V36.0853H105.133ZM109.421 40.5304V37.9972H110.253V42.7769H109.421V42.0886C109.09 42.6303 108.574 42.9012 107.873 42.9012C107.312 42.9012 106.863 42.7259 106.525 42.3754C106.187 42.0185 106.018 41.5374 106.018 40.9319V37.9972H106.85V40.8841C106.85 41.2665 106.955 41.566 107.165 41.7827C107.376 41.9994 107.666 42.1078 108.035 42.1078C108.462 42.1078 108.8 41.9771 109.048 41.7158C109.297 41.4481 109.421 41.053 109.421 40.5304ZM112.351 42.7769H111.519V35.7985H112.351V42.7769ZM114.451 42.7769H113.62V35.7985H114.451V42.7769ZM120.949 42.7769H119.945L117.556 36.0853H118.511L120.452 41.668L122.383 36.0853H123.349L120.949 42.7769ZM124.281 37.1273C124.122 37.1273 123.988 37.0731 123.88 36.9647C123.771 36.8564 123.717 36.7258 123.717 36.5728C123.717 36.4199 123.771 36.2892 123.88 36.1809C123.988 36.0661 124.122 36.0088 124.281 36.0088C124.434 36.0088 124.565 36.0661 124.673 36.1809C124.782 36.2892 124.836 36.4199 124.836 36.5728C124.836 36.7258 124.782 36.8564 124.673 36.9647C124.565 37.0731 124.434 37.1273 124.281 37.1273ZM124.692 42.7769H123.861V37.9972H124.692V42.7769ZM129.919 38.8193V36.0853H130.75V42.7769H129.919V41.9548C129.511 42.5857 128.909 42.9012 128.112 42.9012C127.436 42.9012 126.866 42.659 126.401 42.1747C125.929 41.6839 125.693 41.0881 125.693 40.387C125.693 39.6924 125.929 39.0997 126.401 38.609C126.872 38.1183 127.443 37.8729 128.112 37.8729C128.909 37.8729 129.511 38.1884 129.919 38.8193ZM128.217 42.0982C128.701 42.0982 129.106 41.9357 129.431 41.6107C129.756 41.2729 129.919 40.865 129.919 40.387C129.919 39.9027 129.756 39.498 129.431 39.173C129.106 38.8416 128.701 38.6759 128.217 38.6759C127.739 38.6759 127.338 38.8416 127.013 39.173C126.688 39.498 126.525 39.9027 126.525 40.387C126.525 40.865 126.688 41.2729 127.013 41.6107C127.338 41.9357 127.739 42.0982 128.217 42.0982ZM136.599 40.7694H132.594C132.676 41.19 132.871 41.5214 133.177 41.7636C133.483 41.9994 133.865 42.1173 134.324 42.1173C134.955 42.1173 135.414 41.8847 135.7 41.4195L136.408 41.821C135.936 42.5411 135.235 42.9012 134.305 42.9012C133.553 42.9012 132.935 42.6654 132.45 42.1938C131.979 41.7094 131.743 41.1072 131.743 40.387C131.743 39.6605 131.975 39.0615 132.441 38.5899C132.906 38.1119 133.508 37.8729 134.247 37.8729C134.948 37.8729 135.519 38.1214 135.959 38.6185C136.405 39.1029 136.628 39.6956 136.628 40.3966C136.628 40.5177 136.618 40.642 136.599 40.7694ZM134.247 38.6568C133.808 38.6568 133.438 38.781 133.138 39.0296C132.845 39.2781 132.664 39.6159 132.594 40.0429H135.786C135.716 39.6032 135.541 39.2622 135.261 39.02C134.98 38.7779 134.643 38.6568 134.247 38.6568ZM141.608 42.1747C141.124 42.659 140.528 42.9012 139.821 42.9012C139.113 42.9012 138.518 42.659 138.033 42.1747C137.549 41.6903 137.307 41.0944 137.307 40.387C137.307 39.6796 137.549 39.0838 138.033 38.5994C138.518 38.1151 139.113 37.8729 139.821 37.8729C140.528 37.8729 141.124 38.1151 141.608 38.5994C142.099 39.0901 142.345 39.686 142.345 40.387C142.345 41.0881 142.099 41.6839 141.608 42.1747ZM139.821 42.0886C140.299 42.0886 140.7 41.9261 141.025 41.6011C141.35 41.2761 141.513 40.8714 141.513 40.387C141.513 39.9027 141.35 39.498 141.025 39.173C140.7 38.848 140.299 38.6855 139.821 38.6855C139.349 38.6855 138.951 38.848 138.626 39.173C138.301 39.498 138.138 39.9027 138.138 40.387C138.138 40.8714 138.301 41.2761 138.626 41.6011C138.951 41.9261 139.349 42.0886 139.821 42.0886ZM143.229 41.7923H144.185L143.564 44.1152H142.847L143.229 41.7923ZM151.822 36.0853H152.817L150.446 40.0716V42.7769H149.557V40.062L147.196 36.0853H148.19L150.006 39.2208L151.822 36.0853ZM156.601 42.1747C156.117 42.659 155.521 42.9012 154.814 42.9012C154.106 42.9012 153.51 42.659 153.026 42.1747C152.542 41.6903 152.299 41.0944 152.299 40.387C152.299 39.6796 152.542 39.0838 153.026 38.5994C153.51 38.1151 154.106 37.8729 154.814 37.8729C155.521 37.8729 156.117 38.1151 156.601 38.5994C157.092 39.0901 157.337 39.686 157.337 40.387C157.337 41.0881 157.092 41.6839 156.601 42.1747ZM154.814 42.0886C155.292 42.0886 155.693 41.9261 156.018 41.6011C156.343 41.2761 156.506 40.8714 156.506 40.387C156.506 39.9027 156.343 39.498 156.018 39.173C155.693 38.848 155.292 38.6855 154.814 38.6855C154.342 38.6855 153.944 38.848 153.619 39.173C153.294 39.498 153.131 39.9027 153.131 40.387C153.131 40.8714 153.294 41.2761 153.619 41.6011C153.944 41.9261 154.342 42.0886 154.814 42.0886ZM161.616 40.5304V37.9972H162.447V42.7769H161.616V42.0886C161.284 42.6303 160.768 42.9012 160.067 42.9012C159.506 42.9012 159.057 42.7259 158.719 42.3754C158.381 42.0185 158.213 41.5374 158.213 40.9319V37.9972H159.044V40.8841C159.044 41.2665 159.149 41.566 159.36 41.7827C159.57 41.9994 159.86 42.1078 160.23 42.1078C160.657 42.1078 160.994 41.9771 161.243 41.7158C161.492 41.4481 161.616 41.053 161.616 40.5304ZM171.447 36.0853H172.451V42.7769H171.572V37.5479L169.382 41.19H169.268L167.079 37.5574V42.7769H166.19V36.0853H167.193L169.325 39.6223L171.447 36.0853ZM177.094 40.5304V37.9972H177.926V42.7769H177.094V42.0886C176.763 42.6303 176.246 42.9012 175.545 42.9012C174.984 42.9012 174.535 42.7259 174.197 42.3754C173.86 42.0185 173.691 41.5374 173.691 40.9319V37.9972H174.522V40.8841C174.522 41.2665 174.628 41.566 174.838 41.7827C175.048 41.9994 175.338 42.1078 175.708 42.1078C176.135 42.1078 176.473 41.9771 176.721 41.7158C176.97 41.4481 177.094 41.053 177.094 40.5304ZM179.899 39.2877C179.899 39.5936 180.215 39.8326 180.846 40.0047C181.082 40.0556 181.279 40.1098 181.439 40.1672C181.604 40.2182 181.783 40.2978 181.974 40.4062C182.171 40.5145 182.321 40.6579 182.423 40.8363C182.525 41.0148 182.576 41.2251 182.576 41.4673C182.576 41.9006 182.407 42.248 182.069 42.5093C181.732 42.7705 181.305 42.9012 180.788 42.9012C180.33 42.9012 179.931 42.8024 179.594 42.6048C179.262 42.4009 179.026 42.1269 178.886 41.7827L179.603 41.3717C179.68 41.6011 179.823 41.7827 180.033 41.9166C180.244 42.0504 180.495 42.1173 180.788 42.1173C181.075 42.1173 181.305 42.0631 181.477 41.9548C181.649 41.8465 181.735 41.6839 181.735 41.4673C181.735 41.1422 181.419 40.9064 180.788 40.7599C180.578 40.7025 180.419 40.6579 180.31 40.626C180.202 40.5942 180.052 40.5368 179.861 40.454C179.676 40.3711 179.536 40.2851 179.441 40.1959C179.345 40.1003 179.256 39.976 179.173 39.823C179.096 39.6637 179.058 39.4884 179.058 39.2973C179.058 38.883 179.218 38.5421 179.536 38.2744C179.861 38.0067 180.266 37.8729 180.75 37.8729C181.139 37.8729 181.483 37.9621 181.783 38.1406C182.089 38.3126 182.318 38.5548 182.471 38.8671L181.773 39.259C181.601 38.8511 181.26 38.6472 180.75 38.6472C180.508 38.6472 180.304 38.7046 180.138 38.8193C179.979 38.934 179.899 39.0901 179.899 39.2877ZM185.974 37.9972V38.8002H184.703V41.3908C184.703 41.6266 184.747 41.7955 184.837 41.8974C184.932 41.993 185.076 42.044 185.267 42.0504C185.458 42.0504 185.694 42.044 185.974 42.0313V42.7769C185.241 42.8725 184.706 42.812 184.368 42.5953C184.037 42.3786 183.871 41.9771 183.871 41.3908V38.8002H182.925V37.9972H183.871V36.9074L184.703 36.6588V37.9972H185.974ZM189.463 36.0853H191.891C192.503 36.0853 193.016 36.2924 193.43 36.7066C193.844 37.1209 194.051 37.6307 194.051 38.2362C194.051 38.8416 193.844 39.3514 193.43 39.7657C193.016 40.1799 192.503 40.387 191.891 40.387H190.352V42.7769H189.463V36.0853ZM190.352 39.5554H191.891C192.267 39.5554 192.573 39.4311 192.809 39.1825C193.051 38.9213 193.172 38.6058 193.172 38.2362C193.172 37.8538 193.051 37.5383 192.809 37.2898C192.566 37.0412 192.261 36.9169 191.891 36.9169H190.352V39.5554ZM198.609 38.8193V37.9972H199.441V42.7769H198.609V41.9548C198.201 42.5857 197.599 42.9012 196.802 42.9012C196.127 42.9012 195.556 42.659 195.091 42.1747C194.619 41.6839 194.384 41.0881 194.384 40.387C194.384 39.6924 194.619 39.0997 195.091 38.609C195.563 38.1183 196.133 37.8729 196.802 37.8729C197.599 37.8729 198.201 38.1884 198.609 38.8193ZM196.907 42.0982C197.392 42.0982 197.796 41.9357 198.121 41.6107C198.446 41.2729 198.609 40.865 198.609 40.387C198.609 39.9027 198.446 39.498 198.121 39.173C197.796 38.8416 197.392 38.6759 196.907 38.6759C196.429 38.6759 196.028 38.8416 195.703 39.173C195.378 39.498 195.215 39.9027 195.215 40.387C195.215 40.865 195.378 41.2729 195.703 41.6107C196.028 41.9357 196.429 42.0982 196.907 42.0982ZM202.66 41.7445L204.037 37.9972H204.926L202.976 43.0733C202.766 43.615 202.476 44.026 202.106 44.3064C201.743 44.5932 201.325 44.7207 200.854 44.6888V43.9145C201.44 43.9591 201.87 43.6341 202.144 42.9394L202.23 42.7578L200.146 37.9972H201.035L202.66 41.7445ZM212.303 40.9893C212.303 41.5182 212.13 41.9484 211.786 42.2798C211.442 42.6112 210.996 42.812 210.448 42.8821V43.7329H209.846V42.8916C209.33 42.8534 208.887 42.71 208.517 42.4615C208.147 42.2129 207.88 41.8783 207.714 41.4577L208.479 41.018C208.702 41.6107 209.157 41.9452 209.846 42.0217V39.7083C209.323 39.5235 208.909 39.3132 208.603 39.0774C208.227 38.7842 208.039 38.3572 208.039 37.7964C208.039 37.2802 208.211 36.8596 208.555 36.5346C208.906 36.2032 209.336 36.0152 209.846 35.9706V35.1293H210.448V35.9801C211.257 36.0885 211.831 36.5154 212.169 37.2611L211.423 37.6817C211.238 37.2165 210.913 36.9392 210.448 36.85V39.0487C210.735 39.1507 210.967 39.2463 211.146 39.3355C211.337 39.4311 211.525 39.549 211.71 39.6892C212.105 39.976 212.303 40.4093 212.303 40.9893ZM208.919 37.7964C208.919 38.0322 208.989 38.2298 209.129 38.3891C209.275 38.5421 209.514 38.6855 209.846 38.8193V36.8405C209.559 36.8787 209.333 36.9839 209.167 37.1559C209.001 37.3216 208.919 37.5351 208.919 37.7964ZM210.448 39.9282V42.0026C210.748 41.958 210.983 41.8465 211.155 41.668C211.327 41.4896 211.414 41.2665 211.414 40.9988C211.414 40.7439 211.337 40.54 211.184 40.387C211.038 40.2277 210.792 40.0748 210.448 39.9282ZM215.207 38.3987C215.876 38.3987 216.427 38.609 216.861 39.0296C217.294 39.4438 217.511 39.9824 217.511 40.6451C217.511 41.3079 217.294 41.8496 216.861 42.2703C216.427 42.6909 215.876 42.9012 215.207 42.9012C214.525 42.9012 213.97 42.6909 213.543 42.2703C213.116 41.8496 212.903 41.3079 212.903 40.6451C212.903 40.1226 213.037 39.6765 213.304 39.3068L215.455 36.0853H216.469L214.891 38.4178C215.082 38.405 215.188 38.3987 215.207 38.3987ZM215.207 39.2495C214.78 39.2495 214.436 39.3769 214.174 39.6318C213.913 39.8868 213.782 40.2245 213.782 40.6451C213.782 41.0658 213.913 41.4067 214.174 41.668C214.442 41.9229 214.786 42.0504 215.207 42.0504C215.627 42.0504 215.968 41.9229 216.23 41.668C216.497 41.4067 216.631 41.0658 216.631 40.6451C216.631 40.2245 216.497 39.8868 216.23 39.6318C215.968 39.3769 215.627 39.2495 215.207 39.2495Z" fill="white"/>
<g filter="url(#filter2_d_29257_240)">
<rect x="13.2363" y="57.1748" width="229.528" height="36.7673" rx="18.3836" fill="white"/>
<path d="M81.6692 71.852H84.3561C85.0424 71.852 85.6258 72.0854 86.1062 72.5521C86.5798 73.0188 86.8166 73.5918 86.8166 74.2713C86.8166 74.9508 86.5798 75.5238 86.1062 75.9905C85.6258 76.4572 85.0424 76.6906 84.3561 76.6906H83.0899V79.0584H81.6692V71.852ZM83.0899 75.3626H84.3561C84.6581 75.3626 84.9086 75.2596 85.1076 75.0537C85.3067 74.841 85.4062 74.5802 85.4062 74.2713C85.4062 73.9556 85.3067 73.6948 85.1076 73.4889C84.9086 73.283 84.6581 73.1801 84.3561 73.1801H83.0899V75.3626ZM91.25 74.5184V73.911H92.578V79.0584H91.25V78.451C90.8519 78.952 90.2925 79.2025 89.5719 79.2025C88.8856 79.2025 88.2953 78.9417 87.8012 78.4201C87.3139 77.8917 87.0703 77.2465 87.0703 76.4847C87.0703 75.7297 87.3139 75.088 87.8012 74.5596C88.2953 74.0311 88.8856 73.7669 89.5719 73.7669C90.2925 73.7669 90.8519 74.0174 91.25 74.5184ZM88.7998 77.5348C89.0675 77.8024 89.4072 77.9363 89.819 77.9363C90.2308 77.9363 90.5705 77.8024 90.8382 77.5348C91.1127 77.2602 91.25 76.9102 91.25 76.4847C91.25 76.0592 91.1127 75.7126 90.8382 75.4449C90.5705 75.1704 90.2308 75.0331 89.819 75.0331C89.4072 75.0331 89.0675 75.1704 88.7998 75.4449C88.5321 75.7126 88.3983 76.0592 88.3983 76.4847C88.3983 76.9102 88.5321 77.2602 88.7998 77.5348ZM95.9956 77.3701L97.1384 73.911H98.5591L96.6854 79.0584C96.4177 79.7996 96.0608 80.335 95.6147 80.6644C95.1755 81.0007 94.6264 81.1517 93.9676 81.1174V79.882C94.3176 79.8889 94.599 79.8134 94.8117 79.6555C95.0245 79.4977 95.1926 79.2437 95.3162 78.8937L93.2057 73.911H94.6573L95.9956 77.3701ZM106.552 77.0406C106.552 77.6309 106.363 78.1181 105.986 78.5025C105.608 78.88 105.104 79.1065 104.472 79.1819V80.0879H103.783V79.1922C103.206 79.1511 102.712 78.9898 102.3 78.7084C101.888 78.427 101.593 78.0461 101.415 77.5657L102.64 76.8553C102.859 77.4112 103.24 77.7235 103.783 77.7921V76.0111H103.772L103.752 76.0008C103.333 75.8499 102.959 75.6714 102.63 75.4655C102.074 75.1155 101.775 74.5596 101.734 73.7977C101.734 73.1869 101.929 72.7031 102.321 72.3462C102.732 71.9756 103.22 71.7662 103.783 71.7182V70.8225H104.472V71.7388C105.406 71.8555 106.065 72.3393 106.449 73.1903L105.255 73.8904C105.09 73.4786 104.829 73.2281 104.472 73.1389V74.8581C105.138 75.1258 105.567 75.3282 105.759 75.4655C106.288 75.8499 106.552 76.3749 106.552 77.0406ZM103.144 73.808C103.144 73.959 103.192 74.0929 103.288 74.2095C103.385 74.3194 103.549 74.4326 103.783 74.5493V73.108C103.357 73.1903 103.144 73.4237 103.144 73.808ZM104.472 76.2891V77.7716C104.912 77.6823 105.131 77.4421 105.131 77.0509C105.131 76.7421 104.912 76.4881 104.472 76.2891ZM111.337 71.852L109.742 74.1889C110.49 74.2095 111.097 74.4532 111.564 74.9199C112.03 75.3866 112.264 75.9768 112.264 76.6906C112.264 77.425 112.02 78.0289 111.533 78.5025C111.046 78.9692 110.418 79.2025 109.649 79.2025C108.88 79.2025 108.252 78.9692 107.765 78.5025C107.284 78.0427 107.044 77.4387 107.044 76.6906C107.044 76.1484 107.185 75.6645 107.466 75.239L109.711 71.852H111.337ZM110.853 76.6906C110.853 76.3474 110.74 76.0695 110.514 75.8567C110.287 75.6371 109.999 75.5273 109.649 75.5273C109.299 75.5273 109.011 75.6337 108.784 75.8464C108.564 76.0592 108.455 76.3406 108.455 76.6906C108.455 77.0406 108.564 77.3254 108.784 77.5451C109.011 77.7578 109.299 77.8642 109.649 77.8642C109.999 77.8642 110.287 77.7578 110.514 77.5451C110.74 77.3254 110.853 77.0406 110.853 76.6906ZM120.044 71.852V73.2109H117.161V74.9199H119.962V76.2788H117.161V79.0584H115.741V71.852H120.044ZM125.403 78.4201C124.881 78.9417 124.236 79.2025 123.468 79.2025C122.699 79.2025 122.054 78.9417 121.532 78.4201C121.01 77.8985 120.75 77.2534 120.75 76.4847C120.75 75.7229 121.01 75.0812 121.532 74.5596C122.061 74.0311 122.706 73.7669 123.468 73.7669C124.229 73.7669 124.874 74.0311 125.403 74.5596C125.931 75.088 126.196 75.7297 126.196 76.4847C126.196 77.2465 125.931 77.8917 125.403 78.4201ZM122.469 77.5039C122.737 77.7716 123.069 77.9054 123.468 77.9054C123.866 77.9054 124.198 77.7716 124.466 77.5039C124.734 77.2362 124.868 76.8965 124.868 76.4847C124.868 76.0729 124.734 75.7332 124.466 75.4655C124.198 75.1978 123.866 75.064 123.468 75.064C123.069 75.064 122.737 75.1978 122.469 75.4655C122.208 75.74 122.078 76.0798 122.078 76.4847C122.078 76.8896 122.208 77.2294 122.469 77.5039ZM128.458 73.911V74.7963C128.575 74.4738 128.774 74.2301 129.055 74.0654C129.336 73.8938 129.659 73.808 130.023 73.808V75.2905C129.618 75.2356 129.254 75.318 128.932 75.5376C128.616 75.7503 128.458 76.1038 128.458 76.5979V79.0584H127.13V73.911H128.458ZM132.9 71.852H138.201V73.2109H136.256V79.0584H134.835V73.2109H132.9V71.852ZM141.795 73.7669C142.364 73.7669 142.828 73.9556 143.185 74.3331C143.555 74.7174 143.74 75.239 143.74 75.8979V79.0584H142.412V76.0626C142.412 75.7263 142.32 75.4655 142.134 75.2802C141.956 75.0949 141.709 75.0022 141.393 75.0022C141.043 75.0022 140.765 75.1121 140.559 75.3317C140.36 75.5444 140.261 75.8601 140.261 76.2788V79.0584H138.933V71.852H140.261V74.4875C140.577 74.0071 141.088 73.7669 141.795 73.7669ZM145.533 73.2933C145.314 73.2933 145.122 73.2144 144.957 73.0565C144.799 72.8918 144.72 72.6996 144.72 72.48C144.72 72.2604 144.799 72.0682 144.957 71.9035C145.122 71.7388 145.314 71.6564 145.533 71.6564C145.76 71.6564 145.952 71.7388 146.11 71.9035C146.275 72.0682 146.357 72.2604 146.357 72.48C146.357 72.6996 146.275 72.8918 146.11 73.0565C145.952 73.2144 145.76 73.2933 145.533 73.2933ZM146.202 79.0584H144.874V73.911H146.202V79.0584ZM148.603 75.3729C148.603 75.5925 148.915 75.7812 149.54 75.9391C149.759 75.9871 149.958 76.0455 150.137 76.1141C150.315 76.1759 150.494 76.2685 150.672 76.392C150.857 76.5087 151.002 76.6666 151.105 76.8656C151.207 77.0646 151.259 77.2946 151.259 77.5554C151.259 78.0838 151.06 78.4922 150.662 78.7804C150.264 79.0618 149.773 79.2025 149.19 79.2025C148.133 79.2025 147.412 78.7942 147.028 77.9775L148.181 77.3289C148.339 77.775 148.675 77.998 149.19 77.998C149.663 77.998 149.9 77.8505 149.9 77.5554C149.9 77.3357 149.588 77.147 148.963 76.9891C148.73 76.9274 148.531 76.8656 148.366 76.8038C148.201 76.7421 148.023 76.6528 147.831 76.5362C147.639 76.4126 147.491 76.2582 147.388 76.0729C147.292 75.8807 147.244 75.6577 147.244 75.4037C147.244 74.8959 147.429 74.4978 147.8 74.2095C148.177 73.9144 148.644 73.7669 149.2 73.7669C149.619 73.7669 150 73.8629 150.343 74.0551C150.686 74.2404 150.957 74.5081 151.156 74.8581L150.024 75.4758C149.859 75.1258 149.584 74.9508 149.2 74.9508C149.028 74.9508 148.884 74.9919 148.768 75.0743C148.658 75.1498 148.603 75.2493 148.603 75.3729ZM154.799 71.852H157.486C158.172 71.852 158.755 72.0854 159.236 72.5521C159.709 73.0188 159.946 73.5918 159.946 74.2713C159.946 74.9508 159.709 75.5238 159.236 75.9905C158.755 76.4572 158.172 76.6906 157.486 76.6906H156.219V79.0584H154.799V71.852ZM156.219 75.3626H157.486C157.788 75.3626 158.038 75.2596 158.237 75.0537C158.436 74.841 158.536 74.5802 158.536 74.2713C158.536 73.9556 158.436 73.6948 158.237 73.4889C158.038 73.283 157.788 73.1801 157.486 73.1801H156.219V75.3626ZM164.853 78.4201C164.332 78.9417 163.686 79.2025 162.918 79.2025C162.149 79.2025 161.504 78.9417 160.982 78.4201C160.461 77.8985 160.2 77.2534 160.2 76.4847C160.2 75.7229 160.461 75.0812 160.982 74.5596C161.511 74.0311 162.156 73.7669 162.918 73.7669C163.679 73.7669 164.325 74.0311 164.853 74.5596C165.382 75.088 165.646 75.7297 165.646 76.4847C165.646 77.2465 165.382 77.8917 164.853 78.4201ZM161.919 77.5039C162.187 77.7716 162.52 77.9054 162.918 77.9054C163.316 77.9054 163.649 77.7716 163.916 77.5039C164.184 77.2362 164.318 76.8965 164.318 76.4847C164.318 76.0729 164.184 75.7332 163.916 75.4655C163.649 75.1978 163.316 75.064 162.918 75.064C162.52 75.064 162.187 75.1978 161.919 75.4655C161.658 75.74 161.528 76.0798 161.528 76.4847C161.528 76.8896 161.658 77.2294 161.919 77.5039ZM167.695 75.3729C167.695 75.5925 168.007 75.7812 168.631 75.9391C168.851 75.9871 169.05 76.0455 169.228 76.1141C169.407 76.1759 169.585 76.2685 169.764 76.392C169.949 76.5087 170.093 76.6666 170.196 76.8656C170.299 77.0646 170.351 77.2946 170.351 77.5554C170.351 78.0838 170.152 78.4922 169.754 78.7804C169.355 79.0618 168.865 79.2025 168.281 79.2025C167.224 79.2025 166.504 78.7942 166.119 77.9775L167.272 77.3289C167.43 77.775 167.767 77.998 168.281 77.998C168.755 77.998 168.992 77.8505 168.992 77.5554C168.992 77.3357 168.679 77.147 168.055 76.9891C167.822 76.9274 167.623 76.8656 167.458 76.8038C167.293 76.7421 167.115 76.6528 166.922 76.5362C166.73 76.4126 166.583 76.2582 166.48 76.0729C166.384 75.8807 166.336 75.6577 166.336 75.4037C166.336 74.8959 166.521 74.4978 166.892 74.2095C167.269 73.9144 167.736 73.7669 168.292 73.7669C168.71 73.7669 169.091 73.8629 169.434 74.0551C169.778 74.2404 170.049 74.5081 170.248 74.8581L169.115 75.4758C168.951 75.1258 168.676 74.9508 168.292 74.9508C168.12 74.9508 167.976 74.9919 167.859 75.0743C167.749 75.1498 167.695 75.2493 167.695 75.3729ZM173.998 73.911V75.1875H172.835V77.3289C172.835 77.5073 172.88 77.6377 172.969 77.7201C173.058 77.8024 173.188 77.8505 173.36 77.8642C173.532 77.8711 173.744 77.8676 173.998 77.8539V79.0584C173.099 79.1614 172.457 79.079 172.073 78.8113C171.696 78.5368 171.507 78.0427 171.507 77.3289V75.1875H170.611V73.911H171.507V72.8712L172.835 72.4697V73.911H173.998Z" fill="#FF425B"/>
</g>
<rect x="13.2363" y="101.296" width="229.528" height="36.7673" rx="18.3836" fill="black" fill-opacity="0.2"/>
<path d="M67.6296 123.323C66.9227 123.323 66.3256 123.165 65.8383 122.85C65.351 122.534 65.0044 122.098 64.7986 121.542L66.0133 120.832C66.2947 121.566 66.8472 121.933 67.6708 121.933C68.0552 121.933 68.3434 121.865 68.5356 121.728C68.7277 121.59 68.8238 121.405 68.8238 121.172C68.8238 120.918 68.7106 120.722 68.4841 120.585C68.2576 120.441 67.8527 120.286 67.2693 120.122C66.6379 119.929 66.1403 119.706 65.7766 119.452C65.3236 119.116 65.0971 118.622 65.0971 117.97C65.0971 117.311 65.327 116.793 65.7869 116.415C66.2467 116.024 66.806 115.829 67.4649 115.829C68.0414 115.829 68.5527 115.969 68.9988 116.251C69.445 116.532 69.7916 116.93 70.0386 117.445L68.8444 118.135C68.5562 117.517 68.0963 117.208 67.4649 117.208C67.1767 117.208 66.9467 117.277 66.7752 117.414C66.6036 117.544 66.5178 117.716 66.5178 117.929C66.5178 118.155 66.6104 118.341 66.7958 118.485C67.0016 118.629 67.3654 118.78 67.887 118.938L68.3812 119.102C68.4704 119.13 68.6248 119.188 68.8444 119.277C69.0503 119.353 69.2013 119.425 69.2974 119.494C69.6337 119.699 69.8602 119.912 69.9769 120.132C70.1553 120.42 70.2445 120.76 70.2445 121.151C70.2445 121.817 70.0009 122.345 69.5136 122.736C69.0263 123.128 68.3983 123.323 67.6296 123.323ZM74.5067 120.811V118.032H75.8347V123.179H74.5067V122.603C74.191 123.083 73.6796 123.323 72.9727 123.323C72.41 123.323 71.9433 123.135 71.5726 122.757C71.2089 122.373 71.027 121.851 71.027 121.192V118.032H72.355V121.028C72.355 121.364 72.4443 121.625 72.6227 121.81C72.808 121.995 73.0585 122.088 73.3742 122.088C73.7243 122.088 73.9988 121.982 74.1978 121.769C74.4037 121.549 74.5067 121.23 74.5067 120.811ZM80.0468 117.888C80.74 117.888 81.3302 118.152 81.8175 118.68C82.3117 119.209 82.5588 119.85 82.5588 120.605C82.5588 121.374 82.3117 122.019 81.8175 122.541C81.3371 123.062 80.7469 123.323 80.0468 123.323C79.3262 123.323 78.7703 123.073 78.3791 122.572V123.179H77.051V115.973H78.3791V118.639C78.7703 118.138 79.3262 117.888 80.0468 117.888ZM78.7806 121.656C79.0482 121.923 79.388 122.057 79.7997 122.057C80.2115 122.057 80.5513 121.923 80.8189 121.656C81.0935 121.381 81.2307 121.031 81.2307 120.605C81.2307 120.18 81.0935 119.833 80.8189 119.566C80.5513 119.291 80.2115 119.154 79.7997 119.154C79.388 119.154 79.0482 119.291 78.7806 119.566C78.5129 119.833 78.3791 120.18 78.3791 120.605C78.3791 121.031 78.5129 121.381 78.7806 121.656ZM84.6099 119.494C84.6099 119.713 84.9221 119.902 85.5467 120.06C85.7663 120.108 85.9653 120.166 86.1438 120.235C86.3222 120.297 86.5007 120.389 86.6791 120.513C86.8644 120.629 87.0085 120.787 87.1115 120.986C87.2144 121.185 87.2659 121.415 87.2659 121.676C87.2659 122.205 87.0669 122.613 86.6688 122.901C86.2708 123.183 85.78 123.323 85.1967 123.323C84.1397 123.323 83.4191 122.915 83.0347 122.098L84.1878 121.45C84.3456 121.896 84.6819 122.119 85.1967 122.119C85.6702 122.119 85.907 121.971 85.907 121.676C85.907 121.456 85.5947 121.268 84.9702 121.11C84.7368 121.048 84.5378 120.986 84.3731 120.925C84.2084 120.863 84.0299 120.774 83.8377 120.657C83.6456 120.533 83.498 120.379 83.3951 120.194C83.299 120.001 83.2509 119.778 83.2509 119.524C83.2509 119.017 83.4362 118.619 83.8069 118.33C84.1843 118.035 84.651 117.888 85.207 117.888C85.6256 117.888 86.0065 117.984 86.3497 118.176C86.6928 118.361 86.9639 118.629 87.163 118.979L86.0305 119.597C85.8658 119.247 85.5913 119.071 85.207 119.071C85.0354 119.071 84.8912 119.113 84.7746 119.195C84.6648 119.271 84.6099 119.37 84.6099 119.494ZM90.4998 123.323C89.7242 123.323 89.0757 123.062 88.5541 122.541C88.0393 122.019 87.7819 121.374 87.7819 120.605C87.7819 119.837 88.0393 119.192 88.5541 118.67C89.0757 118.148 89.7242 117.888 90.4998 117.888C91.0008 117.888 91.4572 118.008 91.869 118.248C92.2808 118.488 92.5931 118.811 92.8058 119.216L91.6631 119.885C91.5602 119.672 91.4023 119.504 91.1895 119.38C90.9836 119.257 90.7503 119.195 90.4895 119.195C90.0914 119.195 89.762 119.329 89.5012 119.597C89.2404 119.857 89.11 120.194 89.11 120.605C89.11 121.003 89.2404 121.34 89.5012 121.614C89.762 121.875 90.0914 122.006 90.4895 122.006C90.7572 122.006 90.9939 121.947 91.1998 121.831C91.4126 121.707 91.5705 121.539 91.6734 121.326L92.8264 121.985C92.5999 122.397 92.2774 122.723 91.8587 122.963C91.4469 123.203 90.9939 123.323 90.4998 123.323ZM94.8971 118.032V118.917C95.0137 118.595 95.2128 118.351 95.4942 118.186C95.7755 118.015 96.0981 117.929 96.4619 117.929V119.411C96.0569 119.356 95.6932 119.439 95.3706 119.658C95.0549 119.871 94.8971 120.225 94.8971 120.719V123.179H93.569V118.032H94.8971ZM97.8974 117.414C97.6778 117.414 97.4856 117.335 97.3209 117.177C97.1631 117.013 97.0841 116.82 97.0841 116.601C97.0841 116.381 97.1631 116.189 97.3209 116.024C97.4856 115.86 97.6778 115.777 97.8974 115.777C98.1239 115.777 98.3161 115.86 98.4739 116.024C98.6387 116.189 98.721 116.381 98.721 116.601C98.721 116.82 98.6387 117.013 98.4739 117.177C98.3161 117.335 98.1239 117.414 97.8974 117.414ZM98.5666 123.179H97.2386V118.032H98.5666V123.179ZM102.778 117.888C103.471 117.888 104.061 118.152 104.549 118.68C105.043 119.209 105.29 119.85 105.29 120.605C105.29 121.374 105.043 122.019 104.549 122.541C104.068 123.062 103.478 123.323 102.778 123.323C102.057 123.323 101.501 123.073 101.11 122.572V123.179H99.7821V115.973H101.11V118.639C101.501 118.138 102.057 117.888 102.778 117.888ZM101.512 121.656C101.779 121.923 102.119 122.057 102.531 122.057C102.943 122.057 103.282 121.923 103.55 121.656C103.825 121.381 103.962 121.031 103.962 120.605C103.962 120.18 103.825 119.833 103.55 119.566C103.282 119.291 102.943 119.154 102.531 119.154C102.119 119.154 101.779 119.291 101.512 119.566C101.244 119.833 101.11 120.18 101.11 120.605C101.11 121.031 101.244 121.381 101.512 121.656ZM111.23 121.151H107.349C107.52 121.796 108.004 122.119 108.8 122.119C109.308 122.119 109.692 121.947 109.953 121.604L111.024 122.222C110.516 122.956 109.768 123.323 108.78 123.323C107.929 123.323 107.246 123.066 106.731 122.551C106.216 122.036 105.959 121.388 105.959 120.605C105.959 119.837 106.213 119.192 106.721 118.67C107.222 118.148 107.874 117.888 108.677 117.888C109.438 117.888 110.06 118.148 110.54 118.67C111.034 119.192 111.281 119.837 111.281 120.605C111.281 120.75 111.264 120.931 111.23 121.151ZM107.328 120.122H109.953C109.878 119.785 109.723 119.528 109.49 119.349C109.263 119.171 108.992 119.082 108.677 119.082C108.32 119.082 108.025 119.174 107.791 119.36C107.558 119.538 107.403 119.792 107.328 120.122ZM119.569 121.161C119.569 121.752 119.38 122.239 119.003 122.623C118.625 123.001 118.121 123.227 117.49 123.303V124.209H116.8V123.313C116.223 123.272 115.729 123.111 115.317 122.829C114.906 122.548 114.61 122.167 114.432 121.686L115.657 120.976C115.877 121.532 116.258 121.844 116.8 121.913V120.132H116.79L116.769 120.122C116.35 119.971 115.976 119.792 115.647 119.586C115.091 119.236 114.792 118.68 114.751 117.918C114.751 117.308 114.947 116.824 115.338 116.467C115.75 116.096 116.237 115.887 116.8 115.839V114.943H117.49V115.86C118.423 115.976 119.082 116.46 119.466 117.311L118.272 118.011C118.107 117.599 117.846 117.349 117.49 117.26V118.979C118.155 119.247 118.584 119.449 118.776 119.586C119.305 119.971 119.569 120.496 119.569 121.161ZM116.162 117.929C116.162 118.08 116.21 118.214 116.306 118.33C116.402 118.44 116.566 118.553 116.8 118.67V117.229C116.374 117.311 116.162 117.544 116.162 117.929ZM117.49 120.41V121.892C117.929 121.803 118.148 121.563 118.148 121.172C118.148 120.863 117.929 120.609 117.49 120.41ZM125.281 118.33C125.281 118.886 125.137 119.373 124.849 119.792H124.859L122.615 123.179H120.988L122.594 120.832C121.846 120.825 121.235 120.588 120.762 120.122C120.295 119.655 120.062 119.058 120.062 118.33C120.062 117.589 120.302 116.989 120.782 116.529C121.269 116.062 121.897 115.829 122.666 115.829C123.435 115.829 124.063 116.062 124.55 116.529C125.037 116.995 125.281 117.596 125.281 118.33ZM121.472 118.33C121.472 118.68 121.585 118.965 121.812 119.185C122.038 119.397 122.323 119.504 122.666 119.504C123.023 119.504 123.311 119.397 123.531 119.185C123.757 118.965 123.871 118.68 123.871 118.33C123.871 117.98 123.757 117.699 123.531 117.486C123.311 117.273 123.023 117.167 122.666 117.167C122.323 117.167 122.038 117.277 121.812 117.496C121.585 117.709 121.472 117.987 121.472 118.33ZM126.332 122.438C126.332 122.678 126.246 122.884 126.075 123.056C125.903 123.227 125.697 123.313 125.457 123.313C125.217 123.313 125.011 123.227 124.839 123.056C124.668 122.884 124.582 122.678 124.582 122.438C124.582 122.198 124.668 121.992 124.839 121.82C125.011 121.649 125.217 121.563 125.457 121.563C125.697 121.563 125.903 121.649 126.075 121.82C126.246 121.992 126.332 122.198 126.332 122.438ZM131.564 118.33C131.564 118.886 131.42 119.373 131.132 119.792H131.142L128.898 123.179H127.272L128.878 120.832C128.129 120.825 127.519 120.588 127.045 120.122C126.578 119.655 126.345 119.058 126.345 118.33C126.345 117.589 126.585 116.989 127.066 116.529C127.553 116.062 128.181 115.829 128.95 115.829C129.718 115.829 130.346 116.062 130.834 116.529C131.321 116.995 131.564 117.596 131.564 118.33ZM127.755 118.33C127.755 118.68 127.869 118.965 128.095 119.185C128.322 119.397 128.606 119.504 128.95 119.504C129.306 119.504 129.595 119.397 129.814 119.185C130.041 118.965 130.154 118.68 130.154 118.33C130.154 117.98 130.041 117.699 129.814 117.486C129.595 117.273 129.306 117.167 128.95 117.167C128.606 117.167 128.322 117.277 128.095 117.496C127.869 117.709 127.755 117.987 127.755 118.33ZM137.255 118.33C137.255 118.886 137.111 119.373 136.822 119.792H136.833L134.588 123.179H132.962L134.568 120.832C133.82 120.825 133.209 120.588 132.735 120.122C132.269 119.655 132.035 119.058 132.035 118.33C132.035 117.589 132.276 116.989 132.756 116.529C133.243 116.062 133.871 115.829 134.64 115.829C135.409 115.829 136.037 116.062 136.524 116.529C137.011 116.995 137.255 117.596 137.255 118.33ZM133.446 118.33C133.446 118.68 133.559 118.965 133.785 119.185C134.012 119.397 134.297 119.504 134.64 119.504C134.997 119.504 135.285 119.397 135.505 119.185C135.731 118.965 135.844 118.68 135.844 118.33C135.844 117.98 135.731 117.699 135.505 117.486C135.285 117.273 134.997 117.167 134.64 117.167C134.297 117.167 134.012 117.277 133.785 117.496C133.559 117.709 133.446 117.987 133.446 118.33ZM140.732 115.973H143.419C144.105 115.973 144.688 116.206 145.169 116.673C145.642 117.139 145.879 117.713 145.879 118.392C145.879 119.071 145.642 119.645 145.169 120.111C144.688 120.578 144.105 120.811 143.419 120.811H142.152V123.179H140.732V115.973ZM142.152 119.483H143.419C143.721 119.483 143.971 119.38 144.17 119.174C144.369 118.962 144.469 118.701 144.469 118.392C144.469 118.076 144.369 117.816 144.17 117.61C143.971 117.404 143.721 117.301 143.419 117.301H142.152V119.483ZM151.404 121.151H147.523C147.694 121.796 148.178 122.119 148.974 122.119C149.482 122.119 149.866 121.947 150.127 121.604L151.198 122.222C150.69 122.956 149.942 123.323 148.954 123.323C148.103 123.323 147.42 123.066 146.905 122.551C146.39 122.036 146.133 121.388 146.133 120.605C146.133 119.837 146.387 119.192 146.895 118.67C147.396 118.148 148.048 117.888 148.851 117.888C149.612 117.888 150.234 118.148 150.714 118.67C151.208 119.192 151.455 119.837 151.455 120.605C151.455 120.75 151.438 120.931 151.404 121.151ZM147.502 120.122H150.127C150.052 119.785 149.897 119.528 149.664 119.349C149.437 119.171 149.166 119.082 148.851 119.082C148.494 119.082 148.199 119.174 147.965 119.36C147.732 119.538 147.578 119.792 147.502 120.122ZM153.71 118.032V118.917C153.827 118.595 154.026 118.351 154.307 118.186C154.589 118.015 154.911 117.929 155.275 117.929V119.411C154.87 119.356 154.507 119.439 154.184 119.658C153.868 119.871 153.71 120.225 153.71 120.719V123.179H152.382V118.032H153.71ZM160.489 114.943L156.371 124.209H155.784L159.902 114.943H160.489ZM167.092 115.973H168.554V123.179H167.144V118.505L165.116 121.851H164.951L162.923 118.516V123.179H161.502V115.973H162.964L165.033 119.38L167.092 115.973ZM174.221 122.541C173.699 123.062 173.054 123.323 172.285 123.323C171.517 123.323 170.872 123.062 170.35 122.541C169.828 122.019 169.568 121.374 169.568 120.605C169.568 119.844 169.828 119.202 170.35 118.68C170.879 118.152 171.524 117.888 172.285 117.888C173.047 117.888 173.692 118.152 174.221 118.68C174.749 119.209 175.014 119.85 175.014 120.605C175.014 121.367 174.749 122.012 174.221 122.541ZM171.287 121.625C171.555 121.892 171.887 122.026 172.285 122.026C172.684 122.026 173.016 121.892 173.284 121.625C173.552 121.357 173.686 121.017 173.686 120.605C173.686 120.194 173.552 119.854 173.284 119.586C173.016 119.319 172.684 119.185 172.285 119.185C171.887 119.185 171.555 119.319 171.287 119.586C171.026 119.861 170.896 120.2 170.896 120.605C170.896 121.01 171.026 121.35 171.287 121.625ZM178.81 117.888C179.379 117.888 179.843 118.076 180.2 118.454C180.57 118.838 180.756 119.36 180.756 120.019V123.179H179.428V120.183C179.428 119.847 179.335 119.586 179.15 119.401C178.971 119.216 178.724 119.123 178.408 119.123C178.058 119.123 177.78 119.233 177.574 119.452C177.375 119.665 177.276 119.981 177.276 120.4V123.179H175.948V118.032H177.276V118.608C177.592 118.128 178.103 117.888 178.81 117.888ZM184.834 118.032V119.308H183.671V121.45C183.671 121.628 183.715 121.758 183.804 121.841C183.894 121.923 184.024 121.971 184.196 121.985C184.367 121.992 184.58 121.988 184.834 121.975V123.179C183.935 123.282 183.293 123.2 182.909 122.932C182.531 122.658 182.343 122.163 182.343 121.45V119.308H181.447V118.032H182.343V116.992L183.671 116.59V118.032H184.834ZM188.632 117.888C189.202 117.888 189.665 118.076 190.022 118.454C190.393 118.838 190.578 119.36 190.578 120.019V123.179H189.25V120.183C189.25 119.847 189.157 119.586 188.972 119.401C188.793 119.216 188.546 119.123 188.231 119.123C187.881 119.123 187.603 119.233 187.397 119.452C187.198 119.665 187.098 119.981 187.098 120.4V123.179H185.77V115.973H187.098V118.608C187.414 118.128 187.925 117.888 188.632 117.888Z" fill="white"/>
<defs>
<filter id="filter2_d_29257_240" x="-1.47059" y="45.4093" width="258.941" height="66.1811" filterUnits="userSpaceOnUse" color-interpolation-filters="sRGB">
<feFlood flood-opacity="0" result="BackgroundImageFix"/>
<feColorMatrix in="SourceAlpha" type="matrix" values="0 0 0 0 0 0 0 0 0 0 0 0 0 0 0 0 0 0 127 0" result="hardAlpha"/>
<feOffset dy="2.94138"/>
<feGaussianBlur stdDeviation="7.35346"/>
<feComposite in2="hardAlpha" operator="out"/>
<feColorMatrix type="matrix" values="0 0 0 0 0.156863 0 0 0 0 0.462745 0 0 0 0 1 0 0 0 0.2 0"/>
<feBlend mode="normal" in2="BackgroundImageFix" result="effect1_dropShadow_29257_240"/>
<feBlend mode="normal" in="SourceGraphic" in2="effect1_dropShadow_29257_240" result="shape"/>
</filter>
</defs>
</svg>
