<svg width="256" height="152" viewBox="0 0 256 152" fill="none" xmlns="http://www.w3.org/2000/svg">
<rect y="0.937782" width="256" height="150.124" rx="18.3836" fill="black" fill-opacity="0.6"/>
<mask id="mask0_29274_17445" style="mask-type:alpha" maskUnits="userSpaceOnUse" x="76" y="13" width="19" height="19">
<path fill-rule="evenodd" clip-rule="evenodd" d="M87.9638 28.55C87.9638 28.55 87.9615 28.5506 87.9563 28.5494C87.9612 28.549 87.9638 28.55 87.9638 28.55ZM84.6583 23.1274L84.6268 23.1203C84.3861 23.0657 84.0463 22.9858 83.6485 22.8843C82.8557 22.6821 81.8207 22.3912 80.8771 22.0404C80.4054 21.865 79.9471 21.6712 79.5491 21.4617C79.1586 21.2561 78.791 21.0173 78.5298 20.7403C78.2695 20.4642 78.0384 20.0615 78.1529 19.5801C78.2592 19.1335 78.6242 18.8077 79.0529 18.5602C80.4218 17.7701 83.3771 16.733 86.1061 15.9817C87.4798 15.6034 88.8215 15.2906 89.9067 15.1143C90.4481 15.0264 90.939 14.9703 91.3446 14.9597C91.5474 14.9543 91.7398 14.9601 91.9125 14.9823C92.0785 15.0036 92.2622 15.0444 92.4251 15.1312C92.5227 15.1831 92.6026 15.263 92.6545 15.3606C92.7413 15.5235 92.7821 15.7072 92.8034 15.8732C92.8256 16.0459 92.8314 16.2383 92.826 16.4411C92.8154 16.8467 92.7593 17.3376 92.6714 17.879C92.4951 18.9642 92.1823 20.3059 91.804 21.6796C91.0526 24.4086 90.0156 27.3639 89.2255 28.7328C88.978 29.1615 88.6522 29.5265 88.2056 29.6328C87.7242 29.7473 87.3215 29.5162 87.0454 29.2559C86.7684 28.9947 86.5296 28.6271 86.324 28.2366C86.1144 27.8386 85.9207 27.3803 85.7453 26.9086C85.3945 25.965 85.1036 24.93 84.9014 24.1372C84.7999 23.7394 84.72 23.3996 84.6654 23.1589L84.6583 23.1274ZM79.2357 19.8219C79.2357 19.8219 79.2367 19.8245 79.2363 19.8294C79.2351 19.8242 79.2357 19.8219 79.2357 19.8219ZM85.9791 23.8623C86.177 24.6381 86.4567 25.6303 86.7878 26.521C86.9534 26.9665 87.1284 27.3771 87.3081 27.7184C87.4918 28.0672 87.6627 28.3093 87.8084 28.4467C87.8879 28.5216 87.934 28.5431 87.9532 28.5486C87.9782 28.537 88.0919 28.4718 88.2622 28.1768C88.9752 26.9415 89.982 24.1073 90.7317 21.3844C91.104 20.0322 91.406 18.7323 91.5735 17.7007C91.622 17.4022 91.6585 17.1306 91.6823 16.8898L85.7346 22.8375C85.8043 23.177 85.8901 23.5136 85.9758 23.8493L85.9791 23.8623ZM79.6089 19.5235C80.8442 18.8105 83.6784 17.8037 86.4013 17.054C87.7535 16.6817 89.0534 16.3797 90.085 16.2122C90.3835 16.1637 90.6551 16.1272 90.8959 16.1034L84.9525 22.0467C84.6869 22.0097 84.4228 21.9391 84.1615 21.8693C84.0819 21.848 84.0025 21.8268 83.9234 21.8066C83.1476 21.6087 82.1554 21.329 81.2647 20.9979C80.8192 20.8323 80.4086 20.6573 80.0673 20.4776C79.7185 20.2939 79.4764 20.123 79.339 19.9773C79.2641 19.8978 79.2426 19.8517 79.2371 19.8325C79.2487 19.8075 79.3139 19.6938 79.6089 19.5235Z" fill="#717375"/>
</mask>
<g mask="url(#mask0_29274_17445)">
<rect width="17.7954" height="17.7954" transform="translate(76.6023 13.4387)" fill="white"/>
</g>
<path d="M102.262 26.4923C101.478 26.4923 100.806 26.3123 100.246 25.9523C99.6937 25.5843 99.3057 25.0763 99.0817 24.4283L100.042 23.8763C100.362 24.8923 101.11 25.4003 102.286 25.4003C102.854 25.4003 103.29 25.2843 103.594 25.0523C103.906 24.8203 104.062 24.5043 104.062 24.1043C104.062 23.7123 103.91 23.4123 103.606 23.2043C103.334 23.0203 102.826 22.8083 102.082 22.5683L101.278 22.3043C101.102 22.2323 100.87 22.1283 100.582 21.9923C100.302 21.8483 100.098 21.7043 99.9697 21.5603C99.6177 21.1763 99.4417 20.7083 99.4417 20.1563C99.4417 19.4203 99.6977 18.8443 100.21 18.4283C100.722 17.9963 101.346 17.7803 102.082 17.7803C102.738 17.7803 103.314 17.9443 103.81 18.2723C104.306 18.6003 104.678 19.0483 104.926 19.6163L103.99 20.1563C103.63 19.2923 102.994 18.8603 102.082 18.8603C101.626 18.8603 101.258 18.9723 100.978 19.1963C100.698 19.4203 100.558 19.7243 100.558 20.1083C100.558 20.4763 100.69 20.7563 100.954 20.9483C101.226 21.1483 101.682 21.3483 102.322 21.5483L102.814 21.7043C103.086 21.8083 103.234 21.8643 103.258 21.8723C103.514 21.9683 103.794 22.1003 104.098 22.2683C104.314 22.3883 104.53 22.5723 104.746 22.8203C105.026 23.1003 105.166 23.5203 105.166 24.0803C105.166 24.8163 104.898 25.4043 104.362 25.8443C103.818 26.2763 103.118 26.4923 102.262 26.4923ZM112.28 23.8163H107.252C107.356 24.3443 107.6 24.7603 107.984 25.0643C108.368 25.3603 108.848 25.5083 109.424 25.5083C110.216 25.5083 110.792 25.2163 111.152 24.6323L112.04 25.1363C111.448 26.0403 110.568 26.4923 109.4 26.4923C108.456 26.4923 107.68 26.1963 107.072 25.6043C106.48 24.9963 106.184 24.2403 106.184 23.3363C106.184 22.4243 106.476 21.6723 107.06 21.0803C107.644 20.4803 108.4 20.1803 109.328 20.1803C110.208 20.1803 110.924 20.4923 111.476 21.1163C112.036 21.7243 112.316 22.4683 112.316 23.3483C112.316 23.5003 112.304 23.6563 112.28 23.8163ZM109.328 21.1643C108.776 21.1643 108.312 21.3203 107.936 21.6323C107.568 21.9443 107.34 22.3683 107.252 22.9043H111.26C111.172 22.3523 110.952 21.9243 110.6 21.6203C110.248 21.3163 109.824 21.1643 109.328 21.1643ZM116.504 20.1803C117.208 20.1803 117.772 20.4043 118.196 20.8523C118.62 21.2923 118.832 21.8923 118.832 22.6523V26.3363H117.788V22.7123C117.788 22.2323 117.656 21.8563 117.392 21.5843C117.128 21.3123 116.764 21.1763 116.3 21.1763C115.764 21.1763 115.34 21.3443 115.028 21.6803C114.716 22.0083 114.56 22.5003 114.56 23.1563V26.3363H113.516V20.3363H114.56V21.2003C114.976 20.5203 115.624 20.1803 116.504 20.1803ZM125.257 21.3683V17.9363H126.301V26.3363H125.257V25.3043C124.745 26.0963 123.989 26.4923 122.989 26.4923C122.141 26.4923 121.425 26.1883 120.841 25.5803C120.249 24.9643 119.953 24.2163 119.953 23.3363C119.953 22.4643 120.249 21.7203 120.841 21.1043C121.433 20.4883 122.149 20.1803 122.989 20.1803C123.989 20.1803 124.745 20.5763 125.257 21.3683ZM123.121 25.4843C123.729 25.4843 124.237 25.2803 124.645 24.8723C125.053 24.4483 125.257 23.9363 125.257 23.3363C125.257 22.7283 125.053 22.2203 124.645 21.8123C124.237 21.3963 123.729 21.1883 123.121 21.1883C122.521 21.1883 122.017 21.3963 121.609 21.8123C121.201 22.2203 120.997 22.7283 120.997 23.3363C120.997 23.9363 121.201 24.4483 121.609 24.8723C122.017 25.2803 122.521 25.4843 123.121 25.4843ZM137.591 17.9363H138.851V26.3363H137.747V19.7723L134.999 24.3443H134.855L132.107 19.7843V26.3363H130.991V17.9363H132.251L134.927 22.3763L137.591 17.9363ZM146.299 23.8163H141.271C141.375 24.3443 141.619 24.7603 142.003 25.0643C142.387 25.3603 142.867 25.5083 143.443 25.5083C144.235 25.5083 144.811 25.2163 145.171 24.6323L146.059 25.1363C145.467 26.0403 144.587 26.4923 143.419 26.4923C142.475 26.4923 141.699 26.1963 141.091 25.6043C140.499 24.9963 140.203 24.2403 140.203 23.3363C140.203 22.4243 140.495 21.6723 141.079 21.0803C141.663 20.4803 142.419 20.1803 143.347 20.1803C144.227 20.1803 144.943 20.4923 145.495 21.1163C146.055 21.7243 146.335 22.4683 146.335 23.3483C146.335 23.5003 146.323 23.6563 146.299 23.8163ZM143.347 21.1643C142.795 21.1643 142.331 21.3203 141.955 21.6323C141.587 21.9443 141.359 22.3683 141.271 22.9043H145.279C145.191 22.3523 144.971 21.9243 144.619 21.6203C144.267 21.3163 143.843 21.1643 143.347 21.1643ZM148.201 21.9563C148.201 22.3403 148.597 22.6403 149.389 22.8563C149.685 22.9203 149.933 22.9883 150.133 23.0603C150.341 23.1243 150.565 23.2243 150.805 23.3603C151.053 23.4963 151.241 23.6763 151.369 23.9003C151.497 24.1243 151.561 24.3883 151.561 24.6923C151.561 25.2363 151.349 25.6723 150.925 26.0003C150.501 26.3283 149.965 26.4923 149.317 26.4923C148.741 26.4923 148.241 26.3683 147.817 26.1203C147.401 25.8643 147.105 25.5203 146.929 25.0883L147.829 24.5723C147.925 24.8603 148.105 25.0883 148.369 25.2563C148.633 25.4243 148.949 25.5083 149.317 25.5083C149.677 25.5083 149.965 25.4403 150.181 25.3043C150.397 25.1683 150.505 24.9643 150.505 24.6923C150.505 24.2843 150.109 23.9883 149.317 23.8043C149.053 23.7323 148.853 23.6763 148.717 23.6363C148.581 23.5963 148.393 23.5243 148.153 23.4203C147.921 23.3163 147.745 23.2083 147.625 23.0963C147.505 22.9763 147.393 22.8203 147.289 22.6283C147.193 22.4283 147.145 22.2083 147.145 21.9683C147.145 21.4483 147.345 21.0203 147.745 20.6843C148.153 20.3483 148.661 20.1803 149.269 20.1803C149.757 20.1803 150.189 20.2923 150.565 20.5163C150.949 20.7323 151.237 21.0363 151.429 21.4283L150.553 21.9203C150.337 21.4083 149.909 21.1523 149.269 21.1523C148.965 21.1523 148.709 21.2243 148.501 21.3683C148.301 21.5123 148.201 21.7083 148.201 21.9563ZM153.322 21.9563C153.322 22.3403 153.718 22.6403 154.51 22.8563C154.806 22.9203 155.054 22.9883 155.254 23.0603C155.462 23.1243 155.686 23.2243 155.926 23.3603C156.174 23.4963 156.362 23.6763 156.49 23.9003C156.618 24.1243 156.682 24.3883 156.682 24.6923C156.682 25.2363 156.47 25.6723 156.046 26.0003C155.622 26.3283 155.086 26.4923 154.438 26.4923C153.862 26.4923 153.362 26.3683 152.938 26.1203C152.522 25.8643 152.226 25.5203 152.05 25.0883L152.95 24.5723C153.046 24.8603 153.226 25.0883 153.49 25.2563C153.754 25.4243 154.07 25.5083 154.438 25.5083C154.798 25.5083 155.086 25.4403 155.302 25.3043C155.518 25.1683 155.626 24.9643 155.626 24.6923C155.626 24.2843 155.23 23.9883 154.438 23.8043C154.174 23.7323 153.974 23.6763 153.838 23.6363C153.702 23.5963 153.514 23.5243 153.274 23.4203C153.042 23.3163 152.866 23.2083 152.746 23.0963C152.626 22.9763 152.514 22.8203 152.41 22.6283C152.314 22.4283 152.266 22.2083 152.266 21.9683C152.266 21.4483 152.466 21.0203 152.866 20.6843C153.274 20.3483 153.782 20.1803 154.39 20.1803C154.878 20.1803 155.31 20.2923 155.686 20.5163C156.07 20.7323 156.358 21.0363 156.55 21.4283L155.674 21.9203C155.458 21.4083 155.03 21.1523 154.39 21.1523C154.086 21.1523 153.83 21.2243 153.622 21.3683C153.422 21.5123 153.322 21.7083 153.322 21.9563ZM162.722 21.3683V20.3363H163.766V26.3363H162.722V25.3043C162.21 26.0963 161.454 26.4923 160.454 26.4923C159.606 26.4923 158.89 26.1883 158.306 25.5803C157.714 24.9643 157.418 24.2163 157.418 23.3363C157.418 22.4643 157.714 21.7203 158.306 21.1043C158.898 20.4883 159.614 20.1803 160.454 20.1803C161.454 20.1803 162.21 20.5763 162.722 21.3683ZM160.586 25.4843C161.194 25.4843 161.702 25.2803 162.11 24.8723C162.518 24.4483 162.722 23.9363 162.722 23.3363C162.722 22.7283 162.518 22.2203 162.11 21.8123C161.702 21.3963 161.194 21.1883 160.586 21.1883C159.986 21.1883 159.482 21.3963 159.074 21.8123C158.666 22.2203 158.462 22.7283 158.462 23.3363C158.462 23.9363 158.666 24.4483 159.074 24.8723C159.482 25.2803 159.986 25.4843 160.586 25.4843ZM170.328 21.3683V20.3363H171.36V26.0843C171.36 26.9723 171.06 27.6603 170.46 28.1483C169.852 28.6443 169.132 28.8923 168.3 28.8923C167.628 28.8923 167.048 28.7643 166.56 28.5083C166.072 28.2603 165.704 27.9003 165.456 27.4283L166.368 26.9123C166.696 27.5843 167.348 27.9203 168.324 27.9203C168.948 27.9203 169.436 27.7563 169.788 27.4283C170.148 27.1003 170.328 26.6523 170.328 26.0843V25.2323C169.8 26.0323 169.048 26.4323 168.072 26.4323C167.208 26.4323 166.484 26.1283 165.9 25.5203C165.308 24.9043 165.012 24.1643 165.012 23.3003C165.012 22.4363 165.308 21.7003 165.9 21.0923C166.484 20.4843 167.208 20.1803 168.072 20.1803C169.056 20.1803 169.808 20.5763 170.328 21.3683ZM170.328 23.3003C170.328 22.7003 170.124 22.1963 169.716 21.7883C169.308 21.3803 168.8 21.1763 168.192 21.1763C167.584 21.1763 167.076 21.3803 166.668 21.7883C166.26 22.1963 166.056 22.7003 166.056 23.3003C166.056 23.9083 166.26 24.4163 166.668 24.8243C167.076 25.2323 167.584 25.4363 168.192 25.4363C168.8 25.4363 169.308 25.2323 169.716 24.8243C170.124 24.4163 170.328 23.9083 170.328 23.3003ZM178.702 23.8163L173.674 23.8163C173.778 24.3443 174.022 24.7603 174.406 25.0643C174.79 25.3603 175.27 25.5083 175.846 25.5083C176.638 25.5083 177.214 25.2163 177.574 24.6323L178.462 25.1363C177.87 26.0403 176.99 26.4923 175.822 26.4923C174.878 26.4923 174.102 26.1963 173.494 25.6043C172.902 24.9963 172.606 24.2403 172.606 23.3363C172.606 22.4243 172.898 21.6723 173.482 21.0803C174.066 20.4803 174.822 20.1803 175.75 20.1803C176.63 20.1803 177.346 20.4923 177.898 21.1163C178.458 21.7243 178.738 22.4683 178.738 23.3483C178.738 23.5003 178.726 23.6563 178.702 23.8163ZM175.75 21.1643C175.198 21.1643 174.734 21.3203 174.358 21.6323C173.99 21.9443 173.762 22.3683 173.674 22.9043H177.682C177.594 22.3523 177.374 21.9243 177.022 21.6203C176.67 21.3163 176.246 21.1643 175.75 21.1643Z" fill="white"/>
<rect x="13.2363" y="45.234" width="229.528" height="36.7673" rx="18.3836" fill="white"/>
<path d="M67.6692 59.9113H70.3561C71.0424 59.9113 71.6258 60.1446 72.1062 60.6113C72.5798 61.078 72.8166 61.6511 72.8166 62.3306C72.8166 63.01 72.5798 63.5831 72.1062 64.0498C71.6258 64.5165 71.0424 64.7499 70.3561 64.7499H69.0899V67.1177H67.6692V59.9113ZM69.0899 63.4218H70.3561C70.6581 63.4218 70.9086 63.3189 71.1076 63.113C71.3067 62.9002 71.4062 62.6394 71.4062 62.3306C71.4062 62.0149 71.3067 61.7541 71.1076 61.5482C70.9086 61.3423 70.6581 61.2393 70.3561 61.2393H69.0899V63.4218ZM77.25 62.5777V61.9703H78.578V67.1177H77.25V66.5103C76.8519 67.0113 76.2925 67.2618 75.5719 67.2618C74.8856 67.2618 74.2953 67.001 73.8012 66.4794C73.3139 65.9509 73.0703 65.3058 73.0703 64.544C73.0703 63.789 73.3139 63.1473 73.8012 62.6188C74.2953 62.0904 74.8856 61.8261 75.5719 61.8261C76.2925 61.8261 76.8519 62.0766 77.25 62.5777ZM74.7998 65.5941C75.0675 65.8617 75.4072 65.9956 75.819 65.9956C76.2308 65.9956 76.5705 65.8617 76.8382 65.5941C77.1127 65.3195 77.25 64.9695 77.25 64.544C77.25 64.1185 77.1127 63.7719 76.8382 63.5042C76.5705 63.2297 76.2308 63.0924 75.819 63.0924C75.4072 63.0924 75.0675 63.2297 74.7998 63.5042C74.5321 63.7719 74.3983 64.1185 74.3983 64.544C74.3983 64.9695 74.5321 65.3195 74.7998 65.5941ZM81.9956 65.4293L83.1384 61.9703H84.5591L82.6854 67.1177C82.4177 67.8589 82.0608 68.3943 81.6147 68.7237C81.1755 69.06 80.6264 69.211 79.9676 69.1767V67.9413C80.3176 67.9481 80.599 67.8726 80.8117 67.7148C81.0245 67.5569 81.1926 67.303 81.3162 66.953L79.2057 61.9703H80.6573L81.9956 65.4293ZM92.5519 65.0999C92.5519 65.6901 92.3631 66.1774 91.9857 66.5618C91.6082 66.9392 91.1037 67.1657 90.4723 67.2412V68.1472H89.7826V67.2515C89.2061 67.2103 88.7119 67.0491 88.3001 66.7677C87.8883 66.4863 87.5932 66.1054 87.4148 65.6249L88.6398 64.9146C88.8595 65.4705 89.2404 65.7828 89.7826 65.8514V64.0704H89.7723L89.7517 64.0601C89.333 63.9091 88.959 63.7307 88.6295 63.5248C88.0736 63.1748 87.7751 62.6188 87.7339 61.857C87.7339 61.2462 87.9295 60.7623 88.3207 60.4055C88.7325 60.0348 89.2198 59.8255 89.7826 59.7775V58.8818H90.4723V59.7981C91.4057 59.9147 92.0646 60.3986 92.4489 61.2496L91.2547 61.9497C91.09 61.5379 90.8292 61.2874 90.4723 61.1982V62.9174C91.1381 63.1851 91.567 63.3875 91.7592 63.5248C92.2876 63.9091 92.5519 64.4342 92.5519 65.0999ZM89.1443 61.8673C89.1443 62.0183 89.1923 62.1521 89.2884 62.2688C89.3845 62.3786 89.5492 62.4919 89.7826 62.6085V61.1673C89.357 61.2496 89.1443 61.483 89.1443 61.8673ZM90.4723 64.3484V65.8308C90.9116 65.7416 91.1312 65.5014 91.1312 65.1102C91.1312 64.8014 90.9116 64.5474 90.4723 64.3484ZM97.3372 59.9113L95.7415 62.2482C96.4896 62.2688 97.097 62.5125 97.5637 62.9792C98.0304 63.4459 98.2638 64.0361 98.2638 64.7499C98.2638 65.4842 98.0201 66.0882 97.5328 66.5618C97.0455 67.0285 96.4175 67.2618 95.6489 67.2618C94.8802 67.2618 94.2522 67.0285 93.7649 66.5618C93.2845 66.1019 93.0443 65.498 93.0443 64.7499C93.0443 64.2077 93.185 63.7238 93.4664 63.2983L95.7106 59.9113H97.3372ZM96.8534 64.7499C96.8534 64.4067 96.7401 64.1288 96.5136 63.916C96.2871 63.6964 95.9989 63.5866 95.6489 63.5866C95.2988 63.5866 95.0106 63.6929 94.7841 63.9057C94.5645 64.1185 94.4547 64.3999 94.4547 64.7499C94.4547 65.0999 94.5645 65.3847 94.7841 65.6043C95.0106 65.8171 95.2988 65.9235 95.6489 65.9235C95.9989 65.9235 96.2871 65.8171 96.5136 65.6043C96.7401 65.3847 96.8534 65.0999 96.8534 64.7499ZM106.044 59.9113V61.2702H103.161V62.9792H105.962V64.3381H103.161V67.1177H101.741V59.9113H106.044ZM111.403 66.4794C110.881 67.001 110.236 67.2618 109.468 67.2618C108.699 67.2618 108.054 67.001 107.532 66.4794C107.01 65.9578 106.75 65.3127 106.75 64.544C106.75 63.7822 107.01 63.1404 107.532 62.6188C108.061 62.0904 108.706 61.8261 109.468 61.8261C110.229 61.8261 110.874 62.0904 111.403 62.6188C111.931 63.1473 112.196 63.789 112.196 64.544C112.196 65.3058 111.931 65.9509 111.403 66.4794ZM108.469 65.5632C108.737 65.8308 109.069 65.9647 109.468 65.9647C109.866 65.9647 110.198 65.8308 110.466 65.5632C110.734 65.2955 110.868 64.9558 110.868 64.544C110.868 64.1322 110.734 63.7925 110.466 63.5248C110.198 63.2571 109.866 63.1233 109.468 63.1233C109.069 63.1233 108.737 63.2571 108.469 63.5248C108.208 63.7993 108.078 64.139 108.078 64.544C108.078 64.9489 108.208 65.2886 108.469 65.5632ZM114.458 61.9703V62.8556C114.575 62.5331 114.774 62.2894 115.055 62.1247C115.336 61.9531 115.659 61.8673 116.023 61.8673V63.3498C115.618 63.2949 115.254 63.3772 114.932 63.5969C114.616 63.8096 114.458 64.1631 114.458 64.6572V67.1177H113.13V61.9703H114.458ZM121.895 67.2618C121.188 67.2618 120.591 67.104 120.104 66.7883C119.617 66.4725 119.27 66.0367 119.064 65.4808L120.279 64.7705C120.561 65.5048 121.113 65.872 121.937 65.872C122.321 65.872 122.609 65.8034 122.801 65.6661C122.994 65.5289 123.09 65.3435 123.09 65.1102C123.09 64.8563 122.976 64.6607 122.75 64.5234C122.523 64.3793 122.118 64.2248 121.535 64.0601C120.904 63.868 120.406 63.6449 120.042 63.391C119.589 63.0547 119.363 62.5605 119.363 61.9085C119.363 61.2496 119.593 60.7315 120.053 60.354C120.512 59.9628 121.072 59.7672 121.731 59.7672C122.307 59.7672 122.819 59.9079 123.265 60.1893C123.711 60.4707 124.057 60.8687 124.304 61.3835L123.11 62.0732C122.822 61.4555 122.362 61.1467 121.731 61.1467C121.442 61.1467 121.213 61.2153 121.041 61.3526C120.869 61.483 120.784 61.6546 120.784 61.8673C120.784 62.0938 120.876 62.2791 121.062 62.4232C121.267 62.5674 121.631 62.7184 122.153 62.8762L122.647 63.0409C122.736 63.0684 122.891 63.1267 123.11 63.2159C123.316 63.2914 123.467 63.3635 123.563 63.4321C123.899 63.638 124.126 63.8508 124.243 64.0704C124.421 64.3587 124.51 64.6984 124.51 65.0896C124.51 65.7553 124.267 66.2838 123.779 66.675C123.292 67.0662 122.664 67.2618 121.895 67.2618ZM130.519 65.0896H126.638C126.81 65.7348 127.293 66.0573 128.09 66.0573C128.597 66.0573 128.982 65.8857 129.243 65.5426L130.313 66.1603C129.805 66.8946 129.057 67.2618 128.069 67.2618C127.218 67.2618 126.535 67.0044 126.02 66.4897C125.506 65.975 125.248 65.3264 125.248 64.544C125.248 63.7753 125.502 63.1302 126.01 62.6085C126.511 62.0869 127.163 61.8261 127.966 61.8261C128.728 61.8261 129.349 62.0869 129.829 62.6085C130.324 63.1302 130.571 63.7753 130.571 64.544C130.571 64.6881 130.554 64.87 130.519 65.0896ZM126.617 64.0601H129.243C129.167 63.7238 129.013 63.4665 128.779 63.288C128.553 63.1096 128.282 63.0203 127.966 63.0203C127.609 63.0203 127.314 63.113 127.081 63.2983C126.847 63.4767 126.693 63.7307 126.617 64.0601ZM134.36 61.8261C134.929 61.8261 135.393 62.0149 135.75 62.3924C136.12 62.7767 136.305 63.2983 136.305 63.9572V67.1177H134.977V64.1219C134.977 63.7856 134.885 63.5248 134.699 63.3395C134.521 63.1542 134.274 63.0615 133.958 63.0615C133.608 63.0615 133.33 63.1713 133.124 63.391C132.925 63.6037 132.826 63.9194 132.826 64.3381V67.1177H131.498V61.9703H132.826V62.5468C133.142 62.0664 133.653 61.8261 134.36 61.8261ZM141.341 62.5777V59.9113H142.669V67.1177H141.341V66.5103C140.95 67.0113 140.394 67.2618 139.673 67.2618C138.98 67.2618 138.387 67.001 137.892 66.4794C137.405 65.9509 137.161 65.3058 137.161 64.544C137.161 63.789 137.405 63.1473 137.892 62.6188C138.387 62.0904 138.98 61.8261 139.673 61.8261C140.394 61.8261 140.95 62.0766 141.341 62.5777ZM138.891 65.5941C139.172 65.8617 139.516 65.9956 139.92 65.9956C140.332 65.9956 140.672 65.8617 140.94 65.5941C141.207 65.3195 141.341 64.9695 141.341 64.544C141.341 64.1185 141.207 63.7719 140.94 63.5042C140.672 63.2297 140.332 63.0924 139.92 63.0924C139.509 63.0924 139.166 63.2297 138.891 63.5042C138.623 63.7719 138.489 64.1185 138.489 64.544C138.489 64.9695 138.623 65.3195 138.891 65.5941ZM152.109 59.9113H153.571V67.1177H152.161V62.4438L150.133 65.7897H149.968L147.94 62.4541V67.1177H146.519V59.9113H147.981L150.05 63.3189L152.109 59.9113ZM159.855 65.0896H155.974C156.146 65.7348 156.63 66.0573 157.426 66.0573C157.934 66.0573 158.318 65.8857 158.579 65.5426L159.65 66.1603C159.142 66.8946 158.394 67.2618 157.405 67.2618C156.554 67.2618 155.871 67.0044 155.357 66.4897C154.842 65.975 154.585 65.3264 154.585 64.544C154.585 63.7753 154.838 63.1302 155.346 62.6085C155.847 62.0869 156.499 61.8261 157.302 61.8261C158.064 61.8261 158.685 62.0869 159.166 62.6085C159.66 63.1302 159.907 63.7753 159.907 64.544C159.907 64.6881 159.89 64.87 159.855 65.0896ZM155.954 64.0601H158.579C158.503 63.7238 158.349 63.4665 158.116 63.288C157.889 63.1096 157.618 63.0203 157.302 63.0203C156.945 63.0203 156.65 63.113 156.417 63.2983C156.184 63.4767 156.029 63.7307 155.954 64.0601ZM161.858 63.4321C161.858 63.6518 162.17 63.8405 162.795 63.9984C163.015 64.0464 163.214 64.1047 163.392 64.1734C163.57 64.2351 163.749 64.3278 163.927 64.4513C164.113 64.568 164.257 64.7259 164.36 64.9249C164.463 65.1239 164.514 65.3538 164.514 65.6146C164.514 66.1431 164.315 66.5515 163.917 66.8397C163.519 67.1211 163.028 67.2618 162.445 67.2618C161.388 67.2618 160.667 66.8535 160.283 66.0367L161.436 65.3882C161.594 65.8343 161.93 66.0573 162.445 66.0573C162.918 66.0573 163.155 65.9098 163.155 65.6146C163.155 65.395 162.843 65.2063 162.218 65.0484C161.985 64.9867 161.786 64.9249 161.621 64.8631C161.457 64.8014 161.278 64.7121 161.086 64.5955C160.894 64.4719 160.746 64.3175 160.643 64.1322C160.547 63.94 160.499 63.717 160.499 63.463C160.499 62.9551 160.684 62.5571 161.055 62.2688C161.433 61.9737 161.899 61.8261 162.455 61.8261C162.874 61.8261 163.255 61.9222 163.598 62.1144C163.941 62.2997 164.212 62.5674 164.411 62.9174L163.279 63.5351C163.114 63.1851 162.839 63.01 162.455 63.01C162.284 63.01 162.139 63.0512 162.023 63.1336C161.913 63.2091 161.858 63.3086 161.858 63.4321ZM166.322 63.4321C166.322 63.6518 166.634 63.8405 167.259 63.9984C167.478 64.0464 167.677 64.1047 167.856 64.1734C168.034 64.2351 168.213 64.3278 168.391 64.4513C168.576 64.568 168.721 64.7259 168.823 64.9249C168.926 65.1239 168.978 65.3538 168.978 65.6146C168.978 66.1431 168.779 66.5515 168.381 66.8397C167.983 67.1211 167.492 67.2618 166.909 67.2618C165.852 67.2618 165.131 66.8535 164.747 66.0367L165.9 65.3882C166.058 65.8343 166.394 66.0573 166.909 66.0573C167.382 66.0573 167.619 65.9098 167.619 65.6146C167.619 65.395 167.307 65.2063 166.682 65.0484C166.449 64.9867 166.25 64.9249 166.085 64.8631C165.92 64.8014 165.742 64.7121 165.55 64.5955C165.358 64.4719 165.21 64.3175 165.107 64.1322C165.011 63.94 164.963 63.717 164.963 63.463C164.963 62.9551 165.148 62.5571 165.519 62.2688C165.896 61.9737 166.363 61.8261 166.919 61.8261C167.338 61.8261 167.719 61.9222 168.062 62.1144C168.405 62.2997 168.676 62.5674 168.875 62.9174L167.743 63.5351C167.578 63.1851 167.303 63.01 166.919 63.01C166.747 63.01 166.603 63.0512 166.487 63.1336C166.377 63.2091 166.322 63.3086 166.322 63.4321ZM173.674 62.5777V61.9703H175.002V67.1177H173.674V66.5103C173.276 67.0113 172.716 67.2618 171.996 67.2618C171.309 67.2618 170.719 67.001 170.225 66.4794C169.738 65.9509 169.494 65.3058 169.494 64.544C169.494 63.789 169.738 63.1473 170.225 62.6188C170.719 62.0904 171.309 61.8261 171.996 61.8261C172.716 61.8261 173.276 62.0766 173.674 62.5777ZM171.223 65.5941C171.491 65.8617 171.831 65.9956 172.243 65.9956C172.654 65.9956 172.994 65.8617 173.262 65.5941C173.536 65.3195 173.674 64.9695 173.674 64.544C173.674 64.1185 173.536 63.7719 173.262 63.5042C172.994 63.2297 172.654 63.0924 172.243 63.0924C171.831 63.0924 171.491 63.2297 171.223 63.5042C170.956 63.7719 170.822 64.1185 170.822 64.544C170.822 64.9695 170.956 65.3195 171.223 65.5941ZM180.149 62.6085V61.9703H181.446V66.8706C181.446 67.6599 181.182 68.2673 180.653 68.6928C180.132 69.1115 179.5 69.3208 178.759 69.3208C177.592 69.3208 176.779 68.9021 176.319 68.0648L177.452 67.4162C177.706 67.8967 178.155 68.1369 178.8 68.1369C179.219 68.1369 179.548 68.0271 179.789 67.8074C180.029 67.5878 180.149 67.2755 180.149 66.8706V66.3147C179.758 66.8363 179.209 67.0971 178.502 67.0971C177.774 67.0971 177.163 66.8432 176.669 66.3353C176.182 65.8137 175.938 65.1891 175.938 64.4616C175.938 63.7341 176.185 63.113 176.679 62.5983C177.174 62.0835 177.781 61.8261 178.502 61.8261C179.209 61.8261 179.758 62.0869 180.149 62.6085ZM179.737 65.4808C180.012 65.2131 180.149 64.8734 180.149 64.4616C180.149 64.0498 180.012 63.717 179.737 63.463C179.469 63.1954 179.126 63.0615 178.708 63.0615C178.296 63.0615 177.949 63.1954 177.668 63.463C177.4 63.717 177.266 64.0498 177.266 64.4616C177.266 64.8734 177.4 65.2131 177.668 65.4808C177.942 65.7416 178.289 65.872 178.708 65.872C179.126 65.872 179.469 65.7416 179.737 65.4808ZM187.654 65.0896H183.772C183.944 65.7348 184.428 66.0573 185.224 66.0573C185.732 66.0573 186.116 65.8857 186.377 65.5426L187.448 66.1603C186.94 66.8946 186.192 67.2618 185.203 67.2618C184.352 67.2618 183.669 67.0044 183.155 66.4897C182.64 65.975 182.383 65.3264 182.383 64.544C182.383 63.7753 182.637 63.1302 183.144 62.6085C183.645 62.0869 184.297 61.8261 185.1 61.8261C185.862 61.8261 186.483 62.0869 186.964 62.6085C187.458 63.1302 187.705 63.7753 187.705 64.544C187.705 64.6881 187.688 64.87 187.654 65.0896ZM183.752 64.0601H186.377C186.302 63.7238 186.147 63.4665 185.914 63.288C185.687 63.1096 185.416 63.0203 185.1 63.0203C184.744 63.0203 184.448 63.113 184.215 63.2983C183.982 63.4767 183.827 63.7307 183.752 64.0601Z" fill="#FF425B"/>
<path d="M15.4399 116.001C15.4399 106.573 15.4399 101.859 18.3689 98.9303C21.2978 96.0013 26.0119 96.0013 35.4399 96.0013H220.56C229.988 96.0013 234.702 96.0013 237.631 98.9303C240.56 101.859 240.56 106.573 240.56 116.001V118.561C240.56 127.989 240.56 132.703 237.631 135.632C234.702 138.561 229.988 138.561 220.56 138.561H35.4399C26.0118 138.561 21.2978 138.561 18.3689 135.632C15.4399 132.703 15.4399 127.989 15.4399 118.561V116.001Z" fill="#181818" fill-opacity="0.9"/>
<g clip-path="url(#clip0_29274_17445)">
<path d="M37.2799 118.961C37.2799 118.961 37.9099 119.521 38.9599 119.521C40.0099 119.521 40.6399 118.961 40.6399 118.961M41.7599 116.161C41.7599 116.471 41.5091 116.721 41.1999 116.721C40.8906 116.721 40.6399 116.471 40.6399 116.161C40.6399 115.852 40.8906 115.601 41.1999 115.601C41.5091 115.601 41.7599 115.852 41.7599 116.161ZM44.5599 117.281C44.5599 120.374 42.0527 122.881 38.9599 122.881C35.8671 122.881 33.3599 120.374 33.3599 117.281C33.3599 114.188 35.8671 111.681 38.9599 111.681C42.0527 111.681 44.5599 114.188 44.5599 117.281ZM37.2799 116.161C37.2799 116.471 37.0291 116.721 36.7199 116.721C36.4106 116.721 36.1599 116.471 36.1599 116.161C36.1599 115.852 36.4106 115.601 36.7199 115.601C37.0291 115.601 37.2799 115.852 37.2799 116.161Z" stroke="white" stroke-width="0.84" stroke-linecap="round" stroke-linejoin="round"/>
</g>
<path d="M55.2627 116.242V113.913H55.984V119.401H55.2627V116.932H52.5971V119.401H51.868V113.913H52.5971V116.242H55.2627ZM57.4721 114.768C57.3414 114.768 57.2317 114.723 57.1428 114.635C57.054 114.546 57.0095 114.439 57.0095 114.313C57.0095 114.188 57.054 114.08 57.1428 113.992C57.2317 113.898 57.3414 113.851 57.4721 113.851C57.5975 113.851 57.7047 113.898 57.7935 113.992C57.8824 114.08 57.9268 114.188 57.9268 114.313C57.9268 114.439 57.8824 114.546 57.7935 114.635C57.7047 114.723 57.5975 114.768 57.4721 114.768ZM57.8092 119.401H57.1271V115.481H57.8092V119.401ZM64.134 116.155V113.913H64.816V119.401H64.134V118.727C63.7994 119.244 63.3055 119.503 62.6522 119.503C62.0982 119.503 61.6304 119.305 61.2488 118.907C60.8621 118.505 60.6687 118.016 60.6687 117.441C60.6687 116.872 60.8621 116.385 61.2488 115.983C61.6356 115.581 62.1034 115.379 62.6522 115.379C63.3055 115.379 63.7994 115.638 64.134 116.155ZM62.7384 118.845C63.1357 118.845 63.4676 118.711 63.7341 118.445C64.0007 118.168 64.134 117.833 64.134 117.441C64.134 117.044 64.0007 116.712 63.7341 116.446C63.4676 116.174 63.1357 116.038 62.7384 116.038C62.3464 116.038 62.0172 116.174 61.7506 116.446C61.484 116.712 61.3508 117.044 61.3508 117.441C61.3508 117.833 61.484 118.168 61.7506 118.445C62.0172 118.711 62.3464 118.845 62.7384 118.845ZM69.6518 117.755H66.3669C66.4348 118.1 66.5942 118.372 66.8451 118.57C67.096 118.764 67.4096 118.86 67.7859 118.86C68.3034 118.86 68.6797 118.67 68.9149 118.288L69.495 118.617C69.1083 119.208 68.5333 119.503 67.7702 119.503C67.1535 119.503 66.6465 119.31 66.2493 118.923C65.8625 118.526 65.6691 118.032 65.6691 117.441C65.6691 116.845 65.8599 116.354 66.2414 115.967C66.623 115.575 67.1169 115.379 67.7232 115.379C68.2981 115.379 68.7659 115.583 69.1266 115.991C69.4924 116.388 69.6754 116.874 69.6754 117.449C69.6754 117.548 69.6675 117.65 69.6518 117.755ZM67.7232 116.022C67.3626 116.022 67.0594 116.124 66.8138 116.328C66.5733 116.532 66.4244 116.809 66.3669 117.159H68.9854C68.928 116.798 68.7842 116.519 68.5542 116.32C68.3243 116.122 68.0473 116.022 67.7232 116.022ZM73.7367 116.155V115.481H74.4188V119.401H73.7367V118.727C73.4022 119.244 72.9083 119.503 72.255 119.503C71.7009 119.503 71.2332 119.305 70.8516 118.907C70.4648 118.505 70.2714 118.016 70.2714 117.441C70.2714 116.872 70.4648 116.385 70.8516 115.983C71.2384 115.581 71.7062 115.379 72.255 115.379C72.9083 115.379 73.4022 115.638 73.7367 116.155ZM72.3412 118.845C72.7384 118.845 73.0703 118.711 73.3369 118.445C73.6035 118.168 73.7367 117.833 73.7367 117.441C73.7367 117.044 73.6035 116.712 73.3369 116.446C73.0703 116.174 72.7384 116.038 72.3412 116.038C71.9492 116.038 71.6199 116.174 71.3534 116.446C71.0868 116.712 70.9535 117.044 70.9535 117.441C70.9535 117.833 71.0868 118.168 71.3534 118.445C71.6199 118.711 71.9492 118.845 72.3412 118.845ZM76.1735 115.481V116.14C76.3982 115.654 76.8059 115.411 77.3965 115.411V116.124C77.062 116.108 76.7746 116.197 76.5341 116.391C76.2937 116.584 76.1735 116.895 76.1735 117.324V119.401H75.4914V115.481H76.1735ZM77.9754 119.487C77.8343 119.487 77.7141 119.438 77.6148 119.339C77.5155 119.239 77.4658 119.119 77.4658 118.978C77.4658 118.837 77.5155 118.717 77.6148 118.617C77.7141 118.518 77.8343 118.468 77.9754 118.468C78.1218 118.468 78.242 118.518 78.3361 118.617C78.4354 118.717 78.485 118.837 78.485 118.978C78.485 119.119 78.4354 119.239 78.3361 119.339C78.242 119.438 78.1218 119.487 77.9754 119.487ZM81.834 114.768C81.7033 114.768 81.5936 114.723 81.5047 114.635C81.4158 114.546 81.3714 114.439 81.3714 114.313C81.3714 114.188 81.4158 114.08 81.5047 113.992C81.5936 113.898 81.7033 113.851 81.834 113.851C81.9594 113.851 82.0666 113.898 82.1554 113.992C82.2443 114.08 82.2887 114.188 82.2887 114.313C82.2887 114.439 82.2443 114.546 82.1554 114.635C82.0666 114.723 81.9594 114.768 81.834 114.768ZM82.1711 119.401H81.489V115.481H82.1711V119.401ZM85.9322 119.401H85.2501V113.678H85.9322V119.401ZM90.3204 118.907C89.9232 119.305 89.4345 119.503 88.8543 119.503C88.2742 119.503 87.7855 119.305 87.3883 118.907C86.991 118.51 86.7924 118.021 86.7924 117.441C86.7924 116.861 86.991 116.372 87.3883 115.975C87.7855 115.578 88.2742 115.379 88.8543 115.379C89.4345 115.379 89.9232 115.578 90.3204 115.975C90.7229 116.378 90.9241 116.866 90.9241 117.441C90.9241 118.016 90.7229 118.505 90.3204 118.907ZM88.8543 118.837C89.2463 118.837 89.5756 118.703 89.8422 118.437C90.1087 118.17 90.242 117.838 90.242 117.441C90.242 117.044 90.1087 116.712 89.8422 116.446C89.5756 116.179 89.2463 116.046 88.8543 116.046C88.4676 116.046 88.1409 116.179 87.8743 116.446C87.6078 116.712 87.4745 117.044 87.4745 117.441C87.4745 117.838 87.6078 118.17 87.8743 118.437C88.1409 118.703 88.4676 118.837 88.8543 118.837ZM93.1274 118.672L94.3583 115.481H95.0952L93.5272 119.401H92.7275L91.1595 115.481H91.8965L93.1274 118.672ZM99.3213 117.755H96.0364C96.1043 118.1 96.2637 118.372 96.5146 118.57C96.7655 118.764 97.0791 118.86 97.4554 118.86C97.9729 118.86 98.3492 118.67 98.5844 118.288L99.1645 118.617C98.7778 119.208 98.2028 119.503 97.4397 119.503C96.823 119.503 96.316 119.31 95.9188 118.923C95.532 118.526 95.3386 118.032 95.3386 117.441C95.3386 116.845 95.5294 116.354 95.9109 115.967C96.2925 115.575 96.7864 115.379 97.3927 115.379C97.9676 115.379 98.4354 115.583 98.7961 115.991C99.1619 116.388 99.3449 116.874 99.3449 117.449C99.3449 117.548 99.337 117.65 99.3213 117.755ZM97.3927 116.022C97.0321 116.022 96.7289 116.124 96.4833 116.328C96.2428 116.532 96.0939 116.809 96.0364 117.159H98.6549C98.5975 116.798 98.4537 116.519 98.2237 116.32C97.9938 116.122 97.7168 116.022 97.3927 116.022ZM103.775 118.555L104.903 115.481H105.633L104.033 119.644C103.861 120.089 103.623 120.426 103.32 120.656C103.022 120.891 102.68 120.995 102.293 120.969V120.334C102.774 120.371 103.126 120.104 103.351 119.535L103.422 119.386L101.713 115.481H102.442L103.775 118.555ZM109.397 118.907C108.999 119.305 108.511 119.503 107.931 119.503C107.35 119.503 106.862 119.305 106.465 118.907C106.067 118.51 105.869 118.021 105.869 117.441C105.869 116.861 106.067 116.372 106.465 115.975C106.862 115.578 107.35 115.379 107.931 115.379C108.511 115.379 108.999 115.578 109.397 115.975C109.799 116.378 110 116.866 110 117.441C110 118.016 109.799 118.505 109.397 118.907ZM107.931 118.837C108.323 118.837 108.652 118.703 108.918 118.437C109.185 118.17 109.318 117.838 109.318 117.441C109.318 117.044 109.185 116.712 108.918 116.446C108.652 116.179 108.323 116.046 107.931 116.046C107.544 116.046 107.217 116.179 106.951 116.446C106.684 116.712 106.551 117.044 106.551 117.441C106.551 117.838 106.684 118.17 106.951 118.437C107.217 118.703 107.544 118.837 107.931 118.837ZM113.548 117.559V115.481H114.231V119.401H113.548V118.837C113.277 119.281 112.853 119.503 112.278 119.503C111.818 119.503 111.45 119.359 111.173 119.072C110.896 118.779 110.757 118.385 110.757 117.888V115.481H111.44V117.849C111.44 118.163 111.526 118.408 111.698 118.586C111.871 118.764 112.109 118.852 112.412 118.852C112.762 118.852 113.039 118.745 113.243 118.531C113.447 118.311 113.548 117.987 113.548 117.559ZM115.99 115.481V116.14C116.215 115.654 116.623 115.411 117.213 115.411V116.124C116.879 116.108 116.591 116.197 116.351 116.391C116.111 116.584 115.99 116.895 115.99 117.324V119.401H115.308V115.481H115.99ZM121.432 118.672L122.663 115.481H123.4L121.832 119.401H121.032L119.464 115.481H120.201L121.432 118.672ZM124.361 114.768C124.23 114.768 124.121 114.723 124.032 114.635C123.943 114.546 123.899 114.439 123.899 114.313C123.899 114.188 123.943 114.08 124.032 113.992C124.121 113.898 124.23 113.851 124.361 113.851C124.487 113.851 124.594 113.898 124.683 113.992C124.771 114.08 124.816 114.188 124.816 114.313C124.816 114.439 124.771 114.546 124.683 114.635C124.594 114.723 124.487 114.768 124.361 114.768ZM124.698 119.401H124.016V115.481H124.698V119.401ZM129.024 116.155V113.913H129.706V119.401H129.024V118.727C128.689 119.244 128.195 119.503 127.542 119.503C126.988 119.503 126.52 119.305 126.139 118.907C125.752 118.505 125.558 118.016 125.558 117.441C125.558 116.872 125.752 116.385 126.139 115.983C126.525 115.581 126.993 115.379 127.542 115.379C128.195 115.379 128.689 115.638 129.024 116.155ZM127.628 118.845C128.025 118.845 128.357 118.711 128.624 118.445C128.89 118.168 129.024 117.833 129.024 117.441C129.024 117.044 128.89 116.712 128.624 116.446C128.357 116.174 128.025 116.038 127.628 116.038C127.236 116.038 126.907 116.174 126.64 116.446C126.374 116.712 126.241 117.044 126.241 117.441C126.241 117.833 126.374 118.168 126.64 118.445C126.907 118.711 127.236 118.845 127.628 118.845ZM134.542 117.755H131.257C131.325 118.1 131.484 118.372 131.735 118.57C131.986 118.764 132.299 118.86 132.676 118.86C133.193 118.86 133.569 118.67 133.805 118.288L134.385 118.617C133.998 119.208 133.423 119.503 132.66 119.503C132.043 119.503 131.536 119.31 131.139 118.923C130.752 118.526 130.559 118.032 130.559 117.441C130.559 116.845 130.75 116.354 131.131 115.967C131.513 115.575 132.007 115.379 132.613 115.379C133.188 115.379 133.656 115.583 134.016 115.991C134.382 116.388 134.565 116.874 134.565 117.449C134.565 117.548 134.557 117.65 134.542 117.755ZM132.613 116.022C132.252 116.022 131.949 116.124 131.704 116.328C131.463 116.532 131.314 116.809 131.257 117.159H133.875C133.818 116.798 133.674 116.519 133.444 116.32C133.214 116.122 132.937 116.022 132.613 116.022ZM138.689 118.907C138.292 119.305 137.803 119.503 137.223 119.503C136.643 119.503 136.154 119.305 135.757 118.907C135.36 118.51 135.161 118.021 135.161 117.441C135.161 116.861 135.36 116.372 135.757 115.975C136.154 115.578 136.643 115.379 137.223 115.379C137.803 115.379 138.292 115.578 138.689 115.975C139.092 116.378 139.293 116.866 139.293 117.441C139.293 118.016 139.092 118.505 138.689 118.907ZM137.223 118.837C137.615 118.837 137.944 118.703 138.211 118.437C138.478 118.17 138.611 117.838 138.611 117.441C138.611 117.044 138.478 116.712 138.211 116.446C137.944 116.179 137.615 116.046 137.223 116.046C136.836 116.046 136.51 116.179 136.243 116.446C135.977 116.712 135.843 117.044 135.843 117.441C135.843 117.838 135.977 118.17 136.243 118.437C136.51 118.703 136.836 118.837 137.223 118.837ZM140.64 116.54C140.64 116.791 140.899 116.987 141.416 117.128C141.61 117.169 141.772 117.214 141.902 117.261C142.038 117.303 142.184 117.368 142.341 117.457C142.503 117.546 142.626 117.663 142.71 117.81C142.793 117.956 142.835 118.129 142.835 118.327C142.835 118.683 142.697 118.967 142.42 119.182C142.143 119.396 141.792 119.503 141.369 119.503C140.993 119.503 140.666 119.422 140.389 119.26C140.117 119.093 139.924 118.868 139.809 118.586L140.397 118.249C140.46 118.437 140.577 118.586 140.75 118.696C140.922 118.805 141.129 118.86 141.369 118.86C141.604 118.86 141.792 118.816 141.934 118.727C142.075 118.638 142.145 118.505 142.145 118.327C142.145 118.061 141.887 117.867 141.369 117.747C141.197 117.7 141.066 117.663 140.977 117.637C140.888 117.611 140.765 117.564 140.609 117.496C140.457 117.428 140.342 117.358 140.264 117.284C140.185 117.206 140.112 117.104 140.044 116.979C139.981 116.848 139.95 116.704 139.95 116.547C139.95 116.208 140.081 115.928 140.342 115.709C140.609 115.489 140.941 115.379 141.338 115.379C141.657 115.379 141.939 115.452 142.184 115.599C142.435 115.74 142.624 115.939 142.749 116.195L142.177 116.516C142.036 116.182 141.756 116.014 141.338 116.014C141.139 116.014 140.972 116.061 140.836 116.155C140.705 116.25 140.64 116.378 140.64 116.54ZM144.029 119.487C143.888 119.487 143.768 119.438 143.668 119.339C143.569 119.239 143.519 119.119 143.519 118.978C143.519 118.837 143.569 118.717 143.668 118.617C143.768 118.518 143.888 118.468 144.029 118.468C144.175 118.468 144.296 118.518 144.39 118.617C144.489 118.717 144.539 118.837 144.539 118.978C144.539 119.119 144.489 119.239 144.39 119.339C144.296 119.438 144.175 119.487 144.029 119.487ZM145.975 119.487C145.833 119.487 145.713 119.438 145.614 119.339C145.515 119.239 145.465 119.119 145.465 118.978C145.465 118.837 145.515 118.717 145.614 118.617C145.713 118.518 145.833 118.468 145.975 118.468C146.121 118.468 146.241 118.518 146.335 118.617C146.434 118.717 146.484 118.837 146.484 118.978C146.484 119.119 146.434 119.239 146.335 119.339C146.241 119.438 146.121 119.487 145.975 119.487ZM147.92 119.487C147.779 119.487 147.659 119.438 147.56 119.339C147.46 119.239 147.411 119.119 147.411 118.978C147.411 118.837 147.46 118.717 147.56 118.617C147.659 118.518 147.779 118.468 147.92 118.468C148.067 118.468 148.187 118.518 148.281 118.617C148.38 118.717 148.43 118.837 148.43 118.978C148.43 119.119 148.38 119.239 148.281 119.339C148.187 119.438 148.067 119.487 147.92 119.487Z" fill="white"/>
<path fill-rule="evenodd" clip-rule="evenodd" d="M216.756 117.527C216.756 117.527 210.049 116.139 212.38 114.794C214.347 113.658 221.125 111.707 222.072 112.211C222.576 113.158 220.624 119.936 219.489 121.903C218.144 124.234 216.756 117.527 216.756 117.527Z" stroke="white" stroke-width="0.84" stroke-linecap="round" stroke-linejoin="round"/>
<path d="M216.756 117.527L222.072 112.211" stroke="white" stroke-width="0.84" stroke-linecap="round" stroke-linejoin="round"/>
<defs>
<clipPath id="clip0_29274_17445">
<rect width="13.44" height="13.44" fill="white" transform="translate(32.24 110.561)"/>
</clipPath>
</defs>
</svg>
